<svg aria-hidden="true" style="position: absolute; width: 0; height: 0; overflow: hidden;" version="1.1" xmlns="http://www.w3.org/2000/svg" xmlns:xlink="http://www.w3.org/1999/xlink">
<defs>
<symbol id="icon-antenna1" viewBox="0 0 32 32">
<path fill="#212121" style="fill: var(--color1, #212121)" d="M30.773 22.098l-8.443-8.505 0.937-4.616c0.225 0.090 0.485 0.144 0.758 0.146h0.007c0.008 0 0.017 0 0.026 0 1.192 0 2.159-0.967 2.159-2.159s-0.967-2.159-2.159-2.159c-1.192 0-2.159 0.967-2.159 2.159 0 0.259 0.046 0.508 0.13 0.739l-0.005-0.015-4.96 0.606-8.091-8.133c-0.096-0.098-0.229-0.159-0.376-0.16h-0c-0.14 0.001-0.274 0.057-0.373 0.155l-1.512 1.504c-0.096 0.097-0.156 0.23-0.156 0.377s0.060 0.281 0.156 0.377v0l0.814 0.825c-1.143 2.062-1.816 4.522-1.816 7.139 0 4.106 1.656 7.824 4.336 10.525l-0.001-0.001c0.043 0.041 0.092 0.074 0.146 0.097-0.032 0.164-0.051 0.353-0.052 0.546v6.188h-6.4c-1.472 0.001-2.666 1.194-2.667 2.666v1.067c0 0.295 0.239 0.534 0.534 0.534h24.534c0.294 0 0.533-0.239 0.533-0.534v-1.067c-0.002-1.472-1.195-2.665-2.666-2.666h-6.4v-2.742c1.003 0.21 2.024 0.317 3.049 0.32 2.58-0.003 5.005-0.663 7.117-1.822l-0.077 0.039 0.818 0.823c0.099 0.101 0.235 0.159 0.376 0.16 0.14-0.001 0.274-0.057 0.373-0.155l1.512-1.504c0.096-0.097 0.156-0.23 0.156-0.377s-0.060-0.281-0.156-0.377v0zM23.28 6.233c0.193-0.192 0.459-0.31 0.752-0.31 0.589 0 1.067 0.478 1.067 1.066s-0.477 1.066-1.067 1.066c-0 0-0 0-0 0h-0.004c-0.587-0.003-1.061-0.479-1.061-1.066 0-0.295 0.12-0.563 0.314-0.756l0-0h-0.002zM22.024 9.737l-0.598 2.946-1.175-1.183 1.774-1.763zM21.419 8.835l-1.92 1.909-1.486-1.493 3.406-0.416zM24.004 28.8c0.884 0 1.6 0.716 1.6 1.6v0 0.534h-23.466v-0.534c0-0.884 0.716-1.6 1.6-1.6v0h20.267zM16.538 26.666v1.067h-5.334v-1.067h5.334zM11.204 25.6v-4.053c0-1.294 1.196-2.346 2.667-2.346s2.667 1.053 2.667 2.346v4.053h-5.334zM17.604 23.904v-2.357c0-1.882-1.675-3.413-3.733-3.413-0.017-0-0.038-0-0.058-0-1.353 0-2.54 0.707-3.213 1.771l-0.009 0.016c-2.36-2.482-3.812-5.846-3.812-9.55 0-2.314 0.567-4.496 1.569-6.414l-0.036 0.077 18.602 18.709c-1.823 0.947-3.979 1.502-6.266 1.502-1.079 0-2.128-0.124-3.136-0.357l0.093 0.018zM28.893 23.22l-21.057-21.181 0.754-0.752 7.935 7.98c0.004 0 0.006 0.007 0.010 0.010l13.114 13.191-0.757 0.752z"></path>
<path fill="#2196f3" style="fill: var(--color2, #2196f3)" d="M13.876 20.267h-0.005c-0.001 0-0.002 0-0.002 0-0.884 0-1.6 0.716-1.6 1.6s0.715 1.599 1.597 1.6h0.005c0.001 0 0.001 0 0.002 0 0.884 0 1.6-0.716 1.6-1.6s-0.715-1.599-1.598-1.6h-0zM14.249 22.245c-0.096 0.096-0.229 0.155-0.376 0.155-0.295 0-0.534-0.239-0.534-0.534s0.238-0.533 0.532-0.533h0c0.293 0.002 0.53 0.24 0.53 0.533 0 0.148-0.060 0.281-0.157 0.378v0h0.005z"></path>
</symbol>
<symbol id="icon-astronaut1" viewBox="0 0 32 32">
<path fill="#2196f3" style="fill: var(--color2, #2196f3)" d="M31.974 4.524c-0.064-0.191-0.227-0.332-0.427-0.362l-0.003-0-1.911-0.278-0.855-1.731c-0.179-0.365-0.777-0.365-0.956 0l-0.855 1.731-1.911 0.278c-0.26 0.039-0.457 0.26-0.457 0.528 0 0.15 0.062 0.285 0.161 0.382l1.383 1.348-0.326 1.903c-0.034 0.2 0.048 0.402 0.212 0.522 0.166 0.12 0.383 0.135 0.562 0.040l1.709-0.899 1.709 0.899c0.072 0.038 0.157 0.060 0.247 0.060 0.295 0 0.534-0.239 0.534-0.534 0-0.031-0.003-0.062-0.008-0.092l0 0.003-0.326-1.903 1.383-1.348c0.099-0.097 0.161-0.233 0.161-0.382 0-0.059-0.009-0.115-0.027-0.168l0.001 0.004zM29.511 5.851c-0.126 0.122-0.183 0.299-0.153 0.472l0.191 1.114-1-0.526c-0.072-0.039-0.158-0.062-0.249-0.062s-0.177 0.023-0.252 0.063l0.003-0.001-1 0.526 0.191-1.114c0.005-0.027 0.008-0.058 0.008-0.090 0-0.15-0.062-0.285-0.161-0.382l-0.81-0.789 1.119-0.163c0.174-0.025 0.324-0.134 0.401-0.292l0.501-1.013 0.5 1.013c0.078 0.158 0.228 0.267 0.402 0.292l1.119 0.162-0.809 0.79zM26.134 20.522h-1.067v1.067h1.067v-1.067zM26.134 22.656h-1.067v1.066h1.067v-1.066zM27.2 21.589h-1.067v1.067h1.067v-1.067z"></path>
<path fill="#2196f3" style="fill: var(--color2, #2196f3)" d="M25.067 21.589h-1.067v1.067h1.067v-1.067zM22.4 26.389h-1.067v1.067h1.067v-1.067zM22.4 28.523h-1.067v1.067h1.067v-1.067zM23.467 27.456h-1.067v1.067h1.067v-1.067zM21.334 27.456h-1.067v1.067h1.067v-1.067zM16 24.256h-1.067v1.067h1.067v-1.067zM16 26.389h-1.067v1.067h1.067v-1.067zM17.067 25.322h-1.067v1.067h1.067v-1.067z"></path>
<path fill="#2196f3" style="fill: var(--color2, #2196f3)" d="M14.934 25.322h-1.067v1.067h1.067v-1.067zM5.867 6.122h-1.067v1.066h1.067v-1.066zM5.867 8.256h-1.067v1.066h1.067v-1.066zM6.933 7.189h-1.067v1.067h1.066v-1.067zM4.8 7.189h-1.067v1.067h1.067v-1.067z"></path>
<path fill="#212121" style="fill: var(--color1, #212121)" d="M24.715 14.16c-0.28-0.376-0.698-0.636-1.179-0.703l-0.009-0.001c-0.076-0.012-0.164-0.018-0.254-0.018-0.411 0-0.789 0.139-1.090 0.373l0.004-0.003-1.253 0.96-1.898 1.417-1.358-0.541c2.421-1.086 4.113-3.508 4.113-6.32 0-3.823-3.122-6.934-6.961-6.934s-6.961 3.11-6.961 6.934c0 1.386 0.415 2.674 1.12 3.759l-2.768-0.024c-0.009 0-0.016 0.005-0.023 0.005-0.057 0.003-0.11 0.014-0.159 0.033l0.004-0.001c-0.013 0.005-0.026 0.007-0.038 0.013-0.006 0.003-0.013 0.003-0.019 0.006l-3.233 1.596c-0 0-0.001 0-0.001 0.001l-1.893 0.91c-0.024 0.011-0.045 0.023-0.064 0.036l0.001-0.001c-0.482 0.324-0.795 0.867-0.795 1.483 0 0.297 0.073 0.577 0.201 0.823l-0.005-0.010c0.22 0.424 0.592 0.742 1.043 0.885l0.013 0.003c0.161 0.053 0.345 0.083 0.537 0.083 0.308 0 0.598-0.078 0.851-0.216l-0.009 0.005 1.388-0.738 2.264-1.169 1.357-0.008-5.442 5.415c0 0.001-0.001 0.001-0.001 0.001l-1.339 1.333c-0.303 0.299-0.49 0.714-0.49 1.173 0 0.002 0 0.004 0 0.005v-0c0 0.444 0.174 0.863 0.49 1.178 0.301 0.3 0.717 0.485 1.176 0.485 0.001 0 0.002 0 0.004 0h-0c0.428 0 0.854-0.162 1.18-0.485l1.314-1.309 1.741-1.3 0.901 0.897-3.102 3.088c-0.303 0.299-0.491 0.715-0.491 1.174 0 0.001 0 0.003 0 0.004v-0c0 0.445 0.174 0.864 0.49 1.179 0.302 0.3 0.717 0.485 1.176 0.485 0.001 0 0.002 0 0.003 0h-0c0.427 0 0.855-0.162 1.18-0.485l4.488-4.472c0.007-0.006 0.016-0.009 0.022-0.016l5.166-5.658 3.471 0.494c0.025 0.004 0.050 0.006 0.075 0.006 0.065 0 0.127-0.016 0.187-0.038 0.018-0.006 0.033-0.015 0.050-0.023 0.019-0.010 0.039-0.015 0.058-0.027l3.213-2.133c0.012-0.008 0.018-0.021 0.029-0.030 0.013-0.010 0.029-0.014 0.041-0.026l1.271-1.191c0.348-0.326 0.564-0.787 0.564-1.3 0-0.4-0.132-0.769-0.355-1.066l0.003 0.005zM2.13 17.77c-0.098 0.054-0.215 0.086-0.34 0.086-0.078 0-0.153-0.013-0.224-0.036l0.005 0.001c-0.294-0.093-0.504-0.364-0.504-0.683 0-0.236 0.114-0.445 0.29-0.575l0.002-0.001 1.314-0.632 0.316 0.924 0.133 0.389-0.992 0.527zM5.627 15.942l-1.548 0.8-0.255-0.746-0.184-0.537 2.027-1.001-0.040 1.484zM20.727 9.322c0 0.918-0.219 1.785-0.599 2.56l-4.181-1.899c-0.044-0.575-0.342-1.072-0.782-1.384l-0.006-0.004 1.463-4.861c2.378 0.756 4.105 2.974 4.105 5.588zM8.938 9.322c0-3.235 2.644-5.867 5.894-5.867 0.253 0 0.5 0.022 0.745 0.053l-1.432 4.753c-0.019 0-0.037-0.006-0.057-0.006-0 0-0.001 0-0.001 0-1.032 0-1.869 0.835-1.872 1.867v0c0.003 1.031 0.84 1.867 1.872 1.867 0 0 0.001 0 0.001 0h-0c0.695 0 1.295-0.383 1.618-0.944l3.863 1.755c-1.075 1.446-2.795 2.389-4.737 2.389-3.25 0-5.894-2.632-5.894-5.867zM14.895 10.122c0 0.441-0.362 0.8-0.806 0.8-0 0-0.001 0-0.001 0-0.443 0-0.802-0.358-0.804-0.8v-0c0-0.441 0.361-0.8 0.806-0.8s0.806 0.359 0.806 0.8zM2.464 25.146c-0.11 0.109-0.261 0.176-0.428 0.176s-0.317-0.067-0.427-0.175l0 0c-0.109-0.108-0.176-0.257-0.176-0.422s0.067-0.314 0.176-0.422l0-0 0.962-0.959 0.852 0.848-0.959 0.955zM5.678 28.88c-0.11 0.109-0.261 0.176-0.428 0.176s-0.317-0.067-0.427-0.175l0 0c-0.109-0.108-0.176-0.257-0.176-0.422s0.067-0.314 0.176-0.422l0-0 0.963-0.959 0.852 0.848-0.96 0.955zM9.16 25.411l-0.001 0.001-1.765 1.76-0.852-0.848 1.765-1.757c0.040-0.040 0.065-0.088 0.090-0.136 0.007-0.014 0.020-0.026 0.026-0.040 0.016-0.041 0.019-0.085 0.026-0.128 0.003-0.025 0.014-0.048 0.014-0.073 0-0.035-0.013-0.070-0.020-0.105-0.006-0.032-0.006-0.064-0.019-0.096-0.025-0.053-0.055-0.098-0.092-0.138l0 0c-0.010-0.012-0.014-0.027-0.025-0.038h-0.001s0-0.001-0.001-0.002l-1.607-1.6c-0.017-0.017-0.039-0.024-0.058-0.038-0.025-0.021-0.054-0.040-0.084-0.057l-0.003-0.001c-0.027-0.013-0.058-0.024-0.090-0.031l-0.003-0.001c-0.030-0.009-0.065-0.017-0.101-0.020l-0.002-0c-0.007-0-0.015-0.001-0.023-0.001-0.026 0-0.051 0.002-0.075 0.005l0.003-0c-0.036 0.005-0.069 0.009-0.104 0.021-0.036 0.013-0.068 0.028-0.097 0.046l0.002-0.001c-0.020 0.011-0.042 0.015-0.061 0.029l-1.773 1.324-0.901-0.897 2.399-2.386 4.361 4.289-0.928 0.919zM15.979 18.394c-0.015-0.002-0.030 0.004-0.045 0.003-0.008-0-0.017-0.001-0.027-0.001-0.031 0-0.062 0.003-0.092 0.008l0.003-0c-0.070 0.011-0.132 0.035-0.187 0.070l0.002-0.001c-0.030 0.018-0.057 0.037-0.083 0.061-0.013 0.011-0.028 0.016-0.040 0.029l-4.698 5.146-4.328-4.256 2.833-2.818c0.096-0.097 0.156-0.23 0.156-0.377 0-0.295-0.239-0.534-0.534-0.534-0.001 0-0.001 0-0.002 0h0l-2.219 0.013 0.028-1.607 3.104 0.027c1.264 1.297 3.027 2.101 4.978 2.101 0.001 0 0.002 0 0.003 0h-0c0.438 0 0.864-0.046 1.28-0.122 0.040 0.032 0.080 0.064 0.129 0.085l2.41 0.96 0.152 0.759 0.178 0.885-3.003-0.427zM20.020 18.572l-0.313-1.558 1.446-1.080 0.946 1.257-2.080 1.381zM23.774 15.741l-0.838 0.785-0.931-1.237 0.831-0.637c0.155-0.119 0.351-0.168 0.543-0.143 0.193 0.027 0.364 0.128 0.48 0.284 0.088 0.117 0.141 0.265 0.141 0.426 0 0.206-0.087 0.391-0.226 0.521l-0 0z"></path>
<path fill="#212121" style="fill: var(--color1, #212121)" d="M13.602 18.544l-2.143-2.134c-0.096-0.096-0.229-0.156-0.376-0.156s-0.28 0.059-0.376 0.156v0l-2.143 2.134c-0.097 0.097-0.156 0.23-0.156 0.378s0.060 0.281 0.156 0.378l-0-0 2.143 2.134c0.096 0.096 0.229 0.156 0.376 0.156s0.28-0.059 0.376-0.156v0l2.143-2.134c0.097-0.097 0.157-0.23 0.157-0.378s-0.060-0.281-0.157-0.378l-0-0zM11.083 20.303l-1.387-1.381 1.386-1.381 1.387 1.381-1.387 1.381zM17.164 5.071l-0.258 1.036c0.071 0.018 1.738 0.452 1.738 2.149h1.067c0-2.017-1.666-2.965-2.547-3.184zM19.711 9.322h-1.067v1.066h1.067v-1.066z"></path>
</symbol>
<symbol id="icon-brand" viewBox="0 0 40 32">
<path fill="#afb1b8" style="fill: var(--color3, #afb1b8)" d="M3.056 26.742c0.157 0.194 0.24 0.438 0.236 0.688 0.001 0.016 0.001 0.035 0.001 0.053 0 0.324-0.141 0.615-0.365 0.815l-0.001 0.001c-0.304 0.231-0.681 0.343-1.061 0.317h-1.865v-4.361h1.827c0.031-0.002 0.067-0.003 0.103-0.003 0.341 0 0.657 0.11 0.914 0.297l-0.004-0.003c0.218 0.184 0.355 0.457 0.355 0.763 0 0.018-0.001 0.037-0.002 0.055l0-0.003c0.011 0.24-0.065 0.477-0.212 0.667-0.142 0.173-0.338 0.293-0.556 0.34 0.247 0.046 0.471 0.177 0.63 0.373zM0.868 26.084h0.78c0.178 0.014 0.354-0.038 0.497-0.145 0.104-0.095 0.169-0.232 0.169-0.383 0-0.015-0.001-0.030-0.002-0.045l0 0.002c0.001-0.011 0.001-0.024 0.001-0.037 0-0.153-0.064-0.291-0.167-0.389l-0-0c-0.124-0.093-0.281-0.15-0.45-0.15-0.021 0-0.043 0.001-0.064 0.003l0.003-0h-0.767v1.144zM2.222 27.756c0.114-0.1 0.186-0.246 0.186-0.408 0-0.012-0-0.024-0.001-0.036l0 0.002c0.001-0.010 0.001-0.021 0.001-0.032 0-0.166-0.073-0.314-0.189-0.416l-0.001-0.001c-0.132-0.099-0.299-0.159-0.48-0.159-0.018 0-0.036 0.001-0.054 0.002l0.002-0h-0.818v1.199h0.829c0.187 0.011 0.372-0.042 0.524-0.151zM6.789 28.617l-1.016-1.704h-0.382v1.704h-0.874v-4.361h1.654c0.034-0.003 0.074-0.004 0.114-0.004 0.396 0 0.76 0.142 1.042 0.377l-0.003-0.002c0.245 0.251 0.397 0.595 0.397 0.974 0 0.313-0.103 0.601-0.277 0.834l0.003-0.004c-0.204 0.235-0.483 0.392-0.789 0.443l1.083 1.743h-0.951zM5.392 26.318h0.715c0.497 0 0.745-0.22 0.745-0.66 0.001-0.011 0.001-0.024 0.001-0.037 0-0.176-0.070-0.336-0.184-0.453l0 0c-0.133-0.112-0.306-0.18-0.496-0.18-0.024 0-0.047 0.001-0.070 0.003l0.003-0h-0.724l0.009 1.328zM11.568 27.739h-1.742l-0.308 0.878h-0.916l1.6-4.313h0.991l1.593 4.312h-0.916l-0.301-0.878zM11.335 27.079l-0.637-1.84-0.637 1.84h1.273zM17.55 28.617h-0.869l-1.945-2.965v2.965h-0.866v-4.361h0.866l1.945 2.982v-2.982h0.868v4.361zM22.502 27.573c-0.182 0.33-0.45 0.593-0.775 0.764l-0.010 0.005c-0.378 0.191-0.797 0.286-1.22 0.274h-1.546v-4.361h1.546c0.020-0.001 0.044-0.001 0.067-0.001 0.42 0 0.817 0.1 1.168 0.277l-0.015-0.007c0.332 0.168 0.606 0.433 0.785 0.761 0.171 0.333 0.272 0.727 0.272 1.144s-0.1 0.811-0.278 1.158l0.007-0.014zM21.509 27.469c0.239-0.278 0.384-0.642 0.384-1.041s-0.145-0.763-0.386-1.043l0.002 0.002c-0.264-0.232-0.612-0.374-0.993-0.374-0.033 0-0.065 0.001-0.098 0.003l0.004-0h-0.603v2.823h0.603c0.028 0.002 0.061 0.003 0.094 0.003 0.381 0 0.729-0.141 0.994-0.375l-0.002 0.001zM12.112 0s11.201 4.246 10.962 10.39v10.392s-11.193-4.248-10.959-10.392l-0.003-10.39zM33.054 18.349c2.005-1.402 4.428-2.346 7.049-2.628l0.068-0.006v-3.253c-2.995 1.181-5.436 3.227-7.081 5.827l-0.035 0.060z"></path>
<path fill="#afb1b8" style="fill: var(--color3, #afb1b8)" d="M31.782 19.329c1.749-3.487 4.693-6.158 8.283-7.513l0.105-0.035v-9.373s-15.952 6.048-15.615 14.797v14.796s0.711-0.27 1.829-0.778c0-0.473 0-0.95 0.051-1.43 0.35-4.205 2.342-7.887 5.325-10.446l0.021-0.017z"></path>
<path fill="#afb1b8" style="fill: var(--color3, #afb1b8)" d="M30.266 24.825c0.084-1.026 0.27-2.041 0.558-3.030-2.038 2.401-3.303 5.514-3.378 8.921l-0 0.016c1.299-0.625 2.304-1.165 3.286-1.741l-0.218 0.118c-0.191-0.908-0.3-1.952-0.3-3.021 0-0.445 0.019-0.885 0.056-1.32l-0.004 0.057zM30.9 24.878c-0.031 0.359-0.049 0.777-0.049 1.199 0 0.948 0.090 1.874 0.261 2.772l-0.015-0.092c4.358-2.619 9.255-6.664 9.067-11.553v-0.426c-3.246 0.375-6.107 1.788-8.297 3.894l0.005-0.005c-0.501 1.234-0.847 2.664-0.968 4.158l-0.003 0.052z"></path>
</symbol>
<symbol id="icon-Client1" viewBox="0 0 60 32">
<path  d="M24.533 7.111l2.598 2.46h7.248v6.862l2.598 2.46v-11.781h-12.444z"></path>
<path  d="M22.4 9.467v11.444h12.089v-4.549l-7.281-6.893-4.808-0.003zM32.186 19.238h-7.873v-7.697h0.556v7.176h7.317v0.521zM25.881 23.034l0.291-0.599h0.243l-0.424 0.799v0.465h-0.22v-0.465l-0.424-0.798h0.244l0.291 0.599zM27.129 23.405h-0.489l-0.102 0.294h-0.228l0.477-1.264h0.197l0.478 1.264h-0.229l-0.103-0.294zM26.701 23.228h0.366l-0.183-0.524-0.183 0.524zM27.995 23.358c0-0.058 0.016-0.112 0.048-0.16 0.032-0.049 0.095-0.107 0.188-0.175-0.039-0.046-0.073-0.098-0.101-0.153l-0.002-0.005c-0.017-0.037-0.028-0.080-0.029-0.126v-0c0-0.099 0.030-0.177 0.090-0.235s0.141-0.087 0.243-0.087c0.092 0 0.167 0.027 0.226 0.082s0.089 0.121 0.089 0.201c0 0 0 0.001 0 0.002 0 0.053-0.015 0.103-0.041 0.145l0.001-0.001c-0.035 0.053-0.079 0.096-0.13 0.131l-0.002 0.001-0.086 0.063 0.244 0.288c0.035-0.069 0.053-0.146 0.053-0.231h0.183c0 0.155-0.037 0.283-0.11 0.383l0.186 0.22h-0.245l-0.071-0.084c-0.086 0.064-0.193 0.102-0.31 0.102-0.005 0-0.009-0-0.014-0h0.001c-0.125 0-0.225-0.033-0.3-0.099-0.069-0.061-0.112-0.15-0.112-0.249 0-0.004 0-0.008 0-0.012v0.001zM28.413 23.548c0.071 0 0.138-0.024 0.199-0.071l-0.276-0.326-0.027 0.019c-0.069 0.053-0.104 0.113-0.104 0.181 0 0.058 0.019 0.106 0.057 0.142 0.037 0.034 0.086 0.055 0.141 0.055 0.004 0 0.007-0 0.011-0l-0 0zM28.297 22.734c0 0.049 0.030 0.11 0.090 0.183l0.096-0.066 0.027-0.022c0.033-0.029 0.054-0.071 0.054-0.118 0-0.002-0-0.003-0-0.005v0c0-0 0-0.001 0-0.001 0-0.033-0.014-0.063-0.037-0.083l-0-0c-0.023-0.022-0.055-0.036-0.090-0.036-0.002 0-0.003 0-0.005 0h0c-0.002-0-0.004-0-0.005-0-0.037 0-0.070 0.016-0.093 0.042l-0 0c-0.023 0.027-0.037 0.062-0.037 0.1 0 0.002 0 0.004 0 0.006v-0zM30.593 23.288c-0.013 0.135-0.063 0.24-0.149 0.316s-0.202 0.113-0.346 0.113c-0.101 0-0.189-0.024-0.267-0.071-0.077-0.050-0.138-0.119-0.176-0.201l-0.001-0.003c-0.041-0.089-0.065-0.193-0.065-0.302 0-0.002 0-0.003 0-0.005v0-0.118c0-0.119 0.021-0.224 0.063-0.315s0.103-0.161 0.181-0.21c0.080-0.049 0.171-0.074 0.274-0.074 0.139 0 0.252 0.038 0.337 0.114s0.134 0.183 0.148 0.321h-0.219c-0.011-0.091-0.037-0.156-0.080-0.196s-0.105-0.061-0.187-0.061c-0.095 0-0.169 0.035-0.22 0.105s-0.077 0.172-0.078 0.306v0.112c0 0.137 0.025 0.241 0.073 0.313s0.121 0.108 0.215 0.108c0.086 0 0.151-0.020 0.195-0.058s0.071-0.103 0.082-0.193h0.219zM31.799 23.1c0 0.124-0.021 0.233-0.064 0.326s-0.105 0.165-0.184 0.215c-0.079 0.050-0.171 0.075-0.274 0.075-0.102 0-0.194-0.025-0.274-0.075-0.081-0.052-0.145-0.125-0.185-0.211l-0.001-0.003c-0.042-0.091-0.066-0.197-0.066-0.308 0-0.004 0-0.008 0-0.012v0.001-0.071c0-0.123 0.021-0.232 0.065-0.326s0.106-0.166 0.185-0.216c0.080-0.050 0.171-0.076 0.274-0.076s0.194 0.025 0.273 0.075c0.080 0.049 0.141 0.121 0.185 0.213s0.065 0.201 0.066 0.324v0.070zM31.579 23.034c0-0.14-0.027-0.247-0.080-0.322-0.047-0.068-0.125-0.112-0.213-0.112-0.004 0-0.008 0-0.012 0l0.001-0c-0.003-0-0.006-0-0.009-0-0.088 0-0.166 0.044-0.213 0.111l-0.001 0.001c-0.053 0.074-0.080 0.179-0.082 0.315v0.073c0 0.139 0.027 0.246 0.081 0.322s0.129 0.114 0.225 0.114c0.097 0 0.172-0.037 0.224-0.111s0.079-0.182 0.079-0.325v-0.066z"></path>
</symbol>
<symbol id="icon-Client2" viewBox="0 0 60 32">
<path  d="M29.147 7.799h0.048c0.090 0 0.187 0.009 0.283 0.017 0.466 0.034 0.897 0.101 1.314 0.201l-0.055-0.011v-1.018c-0.427-0.107-0.861-0.176-1.3-0.207-0.146-0.012-0.329-0.021-0.513-0.025l-0.012-0h-0.152c-0.88 0.004-1.756 0.116-2.609 0.336-0.971 0.242-1.902 0.621-2.768 1.126v10.097c0.758-0.421 1.636-0.773 2.56-1.011l0.078-0.017c0.649-0.173 1.406-0.294 2.184-0.339l0.030-0.001h0.030c0.125-0.006 0.25-0.010 0.379-0.011v-1.035c-1.028 0.014-2.018 0.152-2.963 0.402l0.085-0.019c-0.348 0.091-0.684 0.188-1 0.297l-0.36 0.122v-7.873l0.154-0.074c1.092-0.531 2.366-0.874 3.712-0.953l0.027-0.001c0.005-0 0.011-0.001 0.016-0.001s0.011 0 0.017 0.001l-0.001-0c0.143-0.007 0.287-0.011 0.428-0.011h0.162c0.075 0.002 0.149 0.004 0.224 0.008z"></path>
<path  d="M31.684 8.865c-0.003 0-0.006 0-0.009 0-0.529 0-1.047-0.044-1.551-0.13l0.054 0.008c-0.21-0.036-0.369-0.069-0.526-0.106l0.056 0.011v9.981c0.647 0.16 1.312 0.238 1.979 0.233 0.929-0.004 1.827-0.126 2.683-0.352l-0.074 0.017c1.050-0.266 1.971-0.652 2.818-1.153l-0.049 0.027v-9.916c-0.758 0.421-1.635 0.773-2.559 1.011l-0.078 0.017c-0.896 0.23-1.817 0.348-2.742 0.352zM35.675 9.037l0.36-0.121v7.875l-0.154 0.074c-0.522 0.256-1.134 0.482-1.771 0.646l-0.069 0.015c-0.769 0.199-1.559 0.301-2.354 0.305-0.238 0-0.473-0.010-0.701-0.030l-0.246-0.022v-8.099l0.287 0.019c0.19 0.013 0.411 0.020 0.634 0.020 0.009 0 0.018 0 0.026-0h-0.001c1.064-0.004 2.093-0.143 3.074-0.402l-0.085 0.019c0.336-0.089 0.669-0.188 1-0.299zM24.084 21.764c-0.097-0.1-0.232-0.162-0.382-0.162-0.006 0-0.013 0-0.019 0l0.001-0c-0.002-0-0.005-0-0.008-0-0.080 0-0.157 0.016-0.227 0.045l0.004-0.001c-0.137 0.055-0.243 0.162-0.295 0.296l-0.001 0.004c-0.028 0.071-0.043 0.147-0.042 0.223v1.349c-0.004 0.095 0.015 0.189 0.053 0.277 0.032 0.069 0.078 0.131 0.135 0.181 0.054 0.045 0.117 0.078 0.185 0.096 0.066 0.018 0.134 0.028 0.202 0.028 0.075 0.001 0.149-0.015 0.218-0.047 0.203-0.090 0.341-0.289 0.341-0.521v0-0.151h-0.353v0.12c0 0.002 0 0.005 0 0.007 0 0.041-0.008 0.079-0.022 0.115l0.001-0.002c-0.012 0.030-0.029 0.055-0.051 0.076l-0 0c-0.040 0.031-0.092 0.051-0.147 0.052h-0c-0.006 0.001-0.013 0.001-0.021 0.001-0.059 0-0.112-0.029-0.144-0.073l-0-0c-0.030-0.048-0.047-0.105-0.047-0.167 0-0.005 0-0.009 0-0.014l-0 0.001v-1.258c-0.002-0.070 0.013-0.139 0.043-0.202 0.033-0.050 0.088-0.083 0.152-0.083 0.007 0 0.015 0 0.022 0.001l-0.001-0c0.002-0 0.004-0 0.007-0 0.062 0 0.116 0.030 0.15 0.076l0 0c0.037 0.048 0.059 0.108 0.059 0.174 0 0.003-0 0.005-0 0.008v-0 0.117h0.349v-0.138c0-0.002 0-0.004 0-0.006 0-0.083-0.016-0.162-0.045-0.234l0.002 0.004c-0.028-0.074-0.068-0.137-0.118-0.19l0 0zM26.179 21.749c-0.108-0.092-0.248-0.148-0.401-0.149h-0c-0.072 0-0.143 0.013-0.21 0.038-0.146 0.052-0.26 0.159-0.322 0.296l-0.001 0.003c-0.036 0.082-0.053 0.171-0.052 0.261v1.294c-0.003 0.091 0.015 0.181 0.051 0.265 0.032 0.069 0.079 0.131 0.137 0.181 0.054 0.050 0.117 0.089 0.186 0.114 0.062 0.024 0.135 0.037 0.21 0.037 0.154 0 0.295-0.057 0.402-0.152l-0.001 0.001c0.057-0.050 0.102-0.112 0.133-0.181 0.036-0.084 0.054-0.174 0.051-0.265v-1.294c0-0.004 0-0.008 0-0.012 0-0.090-0.019-0.176-0.053-0.253l0.002 0.004c-0.033-0.074-0.078-0.137-0.133-0.189l-0-0zM26.015 23.493c0.001 0.006 0.001 0.013 0.001 0.020 0 0.066-0.027 0.125-0.071 0.167l-0 0c-0.045 0.038-0.103 0.060-0.166 0.060s-0.121-0.023-0.166-0.061l0 0c-0.044-0.042-0.071-0.101-0.071-0.167 0-0.007 0-0.014 0.001-0.021l-0 0.001v-1.294c-0.001-0.006-0.001-0.013-0.001-0.020 0-0.066 0.027-0.125 0.071-0.167l0-0c0.045-0.038 0.103-0.060 0.166-0.060s0.121 0.023 0.166 0.061l-0-0c0.044 0.042 0.071 0.101 0.071 0.167 0 0.007-0 0.014-0.001 0.021l0-0.001v1.294zM28.931 24.071v-2.45h-0.339l-0.445 1.297h-0.006l-0.449-1.296h-0.336v2.449h0.35v-1.49h0.006l0.343 1.053h0.174l0.346-1.053h0.006v1.49h0.35zM30.918 21.793c-0.054-0.060-0.122-0.107-0.198-0.134-0.072-0.024-0.154-0.038-0.24-0.038-0.005 0-0.009 0-0.014 0h-0.519v2.45h0.349v-0.957h0.18c0.109 0.005 0.217-0.018 0.315-0.067 0.080-0.045 0.145-0.109 0.19-0.185l0.001-0.002c0.040-0.065 0.068-0.138 0.080-0.213 0.012-0.077 0.019-0.166 0.019-0.256 0-0.008-0-0.015-0-0.023v0.001c0.004-0.117-0.008-0.235-0.034-0.35-0.025-0.088-0.069-0.164-0.129-0.225l0 0zM30.738 22.54c-0.001 0.047-0.013 0.090-0.033 0.129l0.001-0.002c-0.020 0.038-0.051 0.067-0.089 0.085l-0.001 0c-0.043 0.020-0.093 0.031-0.147 0.031-0.006 0-0.013-0-0.019-0l0.001 0h-0.159v-0.833h0.18c0.005-0 0.011-0 0.017-0 0.051 0 0.099 0.011 0.143 0.032l-0.002-0.001c0.036 0.021 0.064 0.052 0.081 0.089l0 0.001c0.019 0.043 0.029 0.090 0.031 0.137v0.163c0 0.057 0.004 0.116 0 0.168h-0.004zM32.571 21.621h-0.286l-0.54 2.45h0.349l0.102-0.526h0.476l0.103 0.526h0.349l-0.553-2.45zM32.25 23.211l0.172-0.888h0.006l0.171 0.888h-0.349zM34.827 23.097h-0.006l-0.527-1.476h-0.335v2.45h0.349v-1.473h0.007l0.533 1.473h0.329v-2.449h-0.349v1.476zM36.959 21.621l-0.281 0.974h-0.007l-0.281-0.974h-0.37l0.479 1.414v1.035h0.349v-1.035l0.479-1.414h-0.369zM23.111 24.762h0.168v0.472h0.114v-0.472h0.167v-0.097h-0.449v0.097zM24.525 24.666l-0.22 0.569h0.121l0.047-0.129h0.227l0.048 0.129h0.124l-0.226-0.569h-0.121zM24.507 25.009l0.077-0.211 0.077 0.211h-0.155zM25.923 25.025h0.132v0.073c-0.037 0.030-0.084 0.048-0.135 0.048h-0c-0.002 0-0.005 0-0.008 0-0.046 0-0.086-0.021-0.113-0.054l-0-0c-0.026-0.038-0.042-0.085-0.042-0.136 0-0.005 0-0.009 0-0.013l-0 0.001c0-0.127 0.055-0.19 0.164-0.19 0.004-0 0.008-0.001 0.012-0.001 0.056 0 0.103 0.038 0.116 0.090l0 0.001 0.112-0.022c-0.024-0.111-0.104-0.167-0.241-0.167-0.002-0-0.005-0-0.008-0-0.073 0-0.14 0.028-0.191 0.073l0-0c-0.051 0.050-0.083 0.12-0.083 0.197 0 0.007 0 0.015 0.001 0.022l-0-0.001c-0 0.004-0 0.009-0 0.013 0 0.076 0.028 0.146 0.074 0.201l-0-0c0.050 0.052 0.12 0.084 0.198 0.084 0.006 0 0.012-0 0.019-0.001l-0.001 0c0.003 0 0.006 0 0.010 0 0.089 0 0.171-0.034 0.232-0.091l-0 0v-0.224h-0.246v0.096zM27.35 24.666h-0.114v0.569h0.398v-0.097h-0.283v-0.472zM28.557 24.666h-0.115v0.569h0.115v-0.569zM29.737 25.045l-0.233-0.38h-0.111v0.569h0.107v-0.372l0.229 0.372h0.114v-0.569h-0.105v0.38zM30.804 24.984h0.283v-0.097h-0.283v-0.124h0.305v-0.097h-0.42v0.569h0.432v-0.097h-0.316v-0.154zM33.391 24.89h-0.224v-0.224h-0.114v0.569h0.114v-0.249h0.224v0.249h0.114v-0.569h-0.114v0.224zM34.464 24.984h0.284v-0.097h-0.284v-0.124h0.306v-0.097h-0.42v0.569h0.431v-0.097h-0.316v-0.154zM35.919 24.984c0.099-0.016 0.149-0.068 0.149-0.158 0.001-0.005 0.001-0.011 0.001-0.017 0-0.045-0.022-0.085-0.056-0.11l-0-0c-0.042-0.022-0.092-0.034-0.144-0.034-0.008 0-0.016 0-0.023 0.001l0.001-0h-0.241v0.569h0.114v-0.238h0.022c0.003-0 0.006-0 0.009-0 0.022 0 0.044 0.005 0.063 0.013l-0.001-0c0.017 0.010 0.031 0.025 0.041 0.042l0.124 0.181h0.137l-0.069-0.111c-0.031-0.056-0.074-0.101-0.125-0.136l-0.001-0.001zM35.804 24.905h-0.085v-0.143h0.090c0.007-0.001 0.016-0.001 0.024-0.001 0.033 0 0.064 0.005 0.094 0.015l-0.002-0.001c0.008 0.007 0.015 0.016 0.019 0.026l0 0c0.004 0.009 0.006 0.019 0.006 0.030 0 0.001 0 0.002-0 0.002v-0c-0.001 0.023-0.013 0.044-0.030 0.057l-0 0c-0.028 0.009-0.060 0.014-0.094 0.014-0.008 0-0.015-0-0.023-0.001l0.001 0zM37.017 24.984h0.283v-0.097h-0.283v-0.124h0.306v-0.097h-0.421v0.569h0.432v-0.097h-0.317v-0.154z"></path>
</symbol>
<symbol id="icon-Client3" viewBox="0 0 60 32">
<path  d="M25.367 23.394c0.011 0 0.021 0.005 0.028 0.012v0l0.073 0.077c-0.057 0.062-0.127 0.112-0.206 0.145-0.092 0.037-0.192 0.055-0.292 0.052-0.004 0-0.010 0-0.015 0-0.093 0-0.183-0.018-0.265-0.051l0.005 0.002c-0.159-0.064-0.281-0.19-0.339-0.346l-0.001-0.004c-0.029-0.078-0.046-0.169-0.046-0.263 0-0.003 0-0.007 0-0.010v0.001c-0-0.003-0-0.007-0-0.011 0-0.095 0.018-0.185 0.052-0.267l-0.002 0.005c0.032-0.079 0.080-0.151 0.142-0.212s0.137-0.107 0.219-0.139c0.090-0.033 0.186-0.050 0.282-0.049 0.090-0.002 0.179 0.013 0.263 0.044 0.072 0.030 0.139 0.071 0.197 0.123l-0.061 0.082c-0.004 0.006-0.009 0.011-0.015 0.015l-0 0c-0.006 0.004-0.014 0.007-0.022 0.007-0.001 0-0.002-0-0.003-0h0c-0.010-0.001-0.019-0.004-0.027-0.009l0 0-0.033-0.022-0.046-0.028c-0.042-0.022-0.090-0.039-0.141-0.048l-0.003-0c-0.030-0.005-0.065-0.009-0.1-0.009-0.003 0-0.006 0-0.009 0h0c-0.002-0-0.005-0-0.007-0-0.070 0-0.138 0.013-0.199 0.038l0.004-0.001c-0.062 0.024-0.115 0.059-0.159 0.103l0-0c-0.046 0.047-0.081 0.103-0.103 0.164-0.026 0.070-0.038 0.143-0.038 0.216-0.001 0.075 0.012 0.149 0.038 0.22 0.022 0.060 0.057 0.116 0.101 0.163 0.042 0.044 0.094 0.079 0.152 0.101 0.060 0.024 0.124 0.036 0.188 0.035 0.037 0 0.075-0.002 0.112-0.007 0.060-0.007 0.118-0.027 0.169-0.058 0.026-0.016 0.050-0.034 0.072-0.054 0.009-0.008 0.021-0.014 0.035-0.014h0zM27.48 23.008c0.001 0.092-0.016 0.185-0.049 0.271-0.032 0.082-0.079 0.153-0.138 0.21l-0 0c-0.060 0.059-0.132 0.106-0.212 0.137l-0.004 0.001c-0.083 0.031-0.178 0.049-0.278 0.049s-0.195-0.018-0.284-0.051l0.006 0.002c-0.084-0.033-0.155-0.080-0.215-0.139l0 0c-0.059-0.059-0.106-0.13-0.137-0.208l-0.001-0.004c-0.031-0.081-0.049-0.174-0.049-0.271s0.018-0.191 0.051-0.277l-0.002 0.005c0.031-0.079 0.078-0.152 0.139-0.213 0.060-0.057 0.132-0.102 0.211-0.132l0.004-0.001c0.083-0.031 0.178-0.050 0.278-0.050s0.195 0.018 0.284 0.052l-0.006-0.002c0.081 0.031 0.155 0.078 0.216 0.139s0.107 0.132 0.138 0.21c0.034 0.087 0.051 0.18 0.050 0.273zM27.288 23.008c0-0.003 0-0.007 0-0.011 0-0.074-0.013-0.145-0.036-0.21l0.001 0.004c-0.041-0.122-0.133-0.218-0.25-0.265l-0.003-0.001c-0.060-0.023-0.13-0.036-0.202-0.036s-0.142 0.013-0.206 0.037l0.004-0.001c-0.12 0.047-0.212 0.143-0.252 0.263l-0.001 0.003c-0.046 0.142-0.046 0.294 0 0.436 0.041 0.122 0.133 0.218 0.25 0.264l0.003 0.001c0.131 0.047 0.274 0.047 0.404 0 0.059-0.022 0.112-0.057 0.155-0.102 0.044-0.048 0.077-0.103 0.098-0.163 0.025-0.070 0.036-0.144 0.035-0.218zM28.921 23.237l0.020 0.049c0.007-0.017 0.014-0.033 0.021-0.049 0.008-0.019 0.016-0.035 0.025-0.050l-0.001 0.002 0.467-0.809c0.009-0.014 0.017-0.023 0.027-0.025s0.020-0.004 0.032-0.004c0.002 0 0.005 0 0.007 0h0.138v1.316h-0.164v-1.008c-0-0.007-0.001-0.015-0.001-0.023s0-0.016 0.001-0.024l-0 0.001-0.47 0.821c-0.006 0.013-0.016 0.023-0.027 0.030l-0 0c-0.011 0.007-0.025 0.011-0.039 0.011-0 0-0.001 0-0.001 0h-0.026c-0.014 0-0.028-0.004-0.040-0.011s-0.021-0.017-0.028-0.029l-0-0-0.484-0.826v1.057h-0.158v-1.314h0.138c0.002-0 0.004-0 0.007-0 0.011 0 0.022 0.002 0.032 0.005l-0.001-0c0.011 0.005 0.020 0.014 0.025 0.025l0 0 0.477 0.81c0.009 0.013 0.017 0.029 0.023 0.045l0.001 0.002zM30.68 23.172v0.493h-0.183v-1.314h0.408c0.005-0 0.010-0 0.016-0 0.075 0 0.148 0.010 0.218 0.030l-0.006-0.001c0.059 0.016 0.114 0.044 0.161 0.082 0.041 0.036 0.072 0.080 0.091 0.129 0.021 0.054 0.032 0.111 0.031 0.168 0.001 0.058-0.011 0.115-0.034 0.168-0.023 0.052-0.057 0.096-0.098 0.131l-0.001 0c-0.045 0.038-0.099 0.068-0.159 0.086l-0.003 0.001c-0.071 0.022-0.146 0.032-0.22 0.031l-0.221-0.004zM30.68 23.030h0.221c0.048 0.001 0.096-0.006 0.142-0.020 0.039-0.013 0.074-0.032 0.103-0.057l-0 0c0.027-0.023 0.048-0.052 0.062-0.085l0.001-0.002c0.014-0.032 0.022-0.069 0.022-0.108 0-0.001 0-0.002-0-0.004v0c0-0.004 0-0.009 0-0.013 0-0.034-0.007-0.066-0.019-0.095l0.001 0.002c-0.015-0.035-0.037-0.066-0.064-0.090l-0-0c-0.060-0.045-0.136-0.072-0.218-0.072-0.010 0-0.020 0-0.029 0.001l0.001-0h-0.221v0.542zM33.138 23.666h-0.144c-0.001 0-0.002 0-0.003 0-0.014 0-0.027-0.005-0.038-0.012l0 0c-0.010-0.008-0.018-0.018-0.024-0.030l-0-0-0.124-0.318h-0.624l-0.129 0.318c-0.005 0.012-0.013 0.022-0.023 0.029l-0 0c-0.011 0.008-0.024 0.013-0.039 0.013-0.001 0-0.002 0-0.002-0h-0.144l0.549-1.317h0.19l0.556 1.317zM32.233 23.177h0.516l-0.218-0.536c-0.014-0.034-0.029-0.075-0.040-0.117l-0.001-0.006-0.021 0.069c-0.007 0.024-0.014 0.042-0.022 0.060l0.002-0.004-0.216 0.535zM33.928 22.356c0.011 0.006 0.021 0.014 0.028 0.024l0.8 0.992v-1.022h0.164v1.317h-0.091c-0.001 0-0.002 0-0.002 0-0.013 0-0.025-0.003-0.035-0.008l0.001 0c-0.011-0.006-0.021-0.015-0.029-0.024l-0-0-0.799-0.991c0.001 0.015 0.001 0.030 0 0.045v0.979h-0.164v-1.317h0.097c0.011 0 0.022 0.002 0.033 0.006zM36.268 23.142v0.523h-0.183v-0.523l-0.506-0.793h0.164c0.001-0 0.002-0 0.004-0 0.013 0 0.026 0.004 0.036 0.012l-0-0c0.010 0.008 0.018 0.018 0.024 0.029l0 0.001 0.316 0.511c0.013 0.022 0.024 0.042 0.033 0.061s0.016 0.037 0.023 0.055l0.024-0.057c0.009-0.021 0.019-0.041 0.031-0.060l0.312-0.515c0.007-0.011 0.015-0.020 0.024-0.028l0-0c0.010-0.008 0.022-0.013 0.036-0.013 0.001 0 0.002 0 0.003 0h0.166l-0.507 0.796zM28.831 20.14c0.080 0.010 0.16 0.018 0.241 0.025 1.234-0.526 2.278-1.387 3.001-2.475s1.094-2.355 1.066-3.643l-1.36-1.296c0.090 0.427 0.142 0.918 0.142 1.421 0 0.963-0.189 1.881-0.532 2.72l0.017-0.048c-0.521 1.305-1.412 2.446-2.575 3.296z"></path>
<path  d="M28.345 20.080l0.037 0.007c1.242-0.847 2.189-2.029 2.719-3.394 0.299-0.747 0.473-1.613 0.473-2.52 0-0.619-0.081-1.22-0.233-1.791l0.011 0.049-1.937-1.845c0.606 1.145 0.962 2.503 0.962 3.944 0 0.335-0.019 0.666-0.057 0.991l0.004-0.040c-0.189 1.681-0.876 3.276-1.979 4.6zM34.914 15.568c-0.329 1.415-1.129 2.691-2.279 3.639-0.318 0.264-0.672 0.509-1.047 0.722l-0.036 0.019c0.974-0.276 1.818-0.743 2.525-1.362l-0.008 0.006c0.7-0.612 1.254-1.373 1.615-2.235l0.015-0.040-0.786-0.748z"></path>
<path  d="M34.606 15.36l-1.119-1.066c-0.025 1.281-0.413 2.466-1.065 3.463l0.015-0.025c-0.666 1.037-1.611 1.884-2.737 2.454h0.006c0.251 0 0.501-0.014 0.751-0.043 1.075-0.422 1.983-1.069 2.699-1.887l0.007-0.008c0.695-0.793 1.2-1.77 1.436-2.847l0.008-0.043zM28.507 9.806l-1.334-1.273c-1.193 0.439-2.219 1.211-2.943 2.215s-1.115 2.193-1.118 3.411c0.005 1.347 0.48 2.652 1.351 3.712s2.089 1.812 3.46 2.139c1.224-1.42 1.94-3.176 2.046-5.011s-0.407-3.654-1.461-5.193zM37.689 15.164c-0.005-1.597-0.673-3.128-1.858-4.257s-2.792-1.766-4.468-1.771c-0.775-0.001-1.543 0.135-2.265 0.402l8.17 7.783c0.267-0.637 0.422-1.378 0.422-2.155 0-0.001 0-0.001 0-0.002v0z"></path>
</symbol>
<symbol id="icon-Client4" viewBox="0 0 60 32">
<path  d="M20.41 13.095h-0.001c-0.805 0-1.457 0.636-1.457 1.419v0.001c0 0.784 0.652 1.419 1.457 1.419h0.001c0.804 0 1.456-0.636 1.456-1.419v-0.001c0-0.784-0.652-1.419-1.456-1.419zM31.16 12.641c-0.003-1.089-0.447-2.132-1.237-2.902s-1.86-1.204-2.977-1.206c-1.117 0.002-2.189 0.436-2.979 1.205s-1.235 1.814-1.237 2.903v6.004s8.43-0.915 8.431-6.003v-0.001zM16 20.616c0.004 0.793 0.333 1.507 0.86 2.019l0.001 0.001c0.535 0.519 1.266 0.839 2.072 0.84h0c0.805-0.001 1.536-0.321 2.072-0.84l-0.001 0.001c0.528-0.512 0.857-1.227 0.861-2.018v-4.179s-5.866 0.638-5.866 4.177zM18.933 21.364c-0 0-0.001 0-0.001 0-0.158 0-0.305-0.047-0.428-0.128l0.003 0.002c-0.125-0.082-0.222-0.196-0.281-0.331l-0.002-0.005c-0.037-0.084-0.058-0.183-0.058-0.286 0-0.052 0.005-0.102 0.016-0.151l-0.001 0.005c0.032-0.152 0.106-0.282 0.21-0.383l0-0c0.105-0.102 0.239-0.174 0.389-0.204l0.005-0.001c0.149-0.029 0.303-0.014 0.444 0.043s0.26 0.153 0.345 0.276c0.081 0.116 0.129 0.261 0.129 0.417 0 0.103-0.021 0.202-0.060 0.291l0.002-0.005c-0.038 0.091-0.095 0.174-0.166 0.244s-0.156 0.125-0.25 0.163c-0.087 0.036-0.188 0.057-0.294 0.057-0 0-0 0-0 0h0v-0.003zM24.921 20.9h-0.6v0.62h-0.313v-1.516h0.988v0.253h-0.675v0.391h0.6v0.252zM26.423 20.796c0 0.149-0.026 0.28-0.079 0.393s-0.128 0.199-0.227 0.26c-0.093 0.058-0.205 0.092-0.326 0.092-0.004 0-0.008-0-0.013-0h0.001c-0.125 0-0.238-0.030-0.336-0.091-0.1-0.062-0.178-0.15-0.227-0.254l-0.002-0.004c-0.052-0.11-0.083-0.239-0.083-0.375 0-0.004 0-0.009 0-0.013v0.001-0.075c0-0.149 0.027-0.281 0.080-0.394s0.13-0.201 0.228-0.261c0.099-0.061 0.211-0.092 0.338-0.092s0.238 0.031 0.336 0.092c0.099 0.060 0.175 0.148 0.228 0.261 0.054 0.113 0.081 0.244 0.081 0.393v0.068zM26.106 20.727c0-0.159-0.028-0.28-0.085-0.363-0.051-0.075-0.135-0.124-0.232-0.124-0.004 0-0.009 0-0.013 0l0.001-0c-0.004-0-0.008-0-0.012-0-0.096 0-0.18 0.049-0.23 0.122l-0.001 0.001c-0.057 0.081-0.086 0.201-0.086 0.358v0.074c0 0.155 0.028 0.275 0.085 0.361s0.139 0.128 0.246 0.128c0.004 0 0.008 0 0.012 0 0.095 0 0.179-0.048 0.229-0.122l0.001-0.001c0.056-0.083 0.085-0.203 0.085-0.361v-0.074zM27.436 21.122c0-0.003 0-0.006 0-0.009 0-0.051-0.024-0.097-0.062-0.126l-0-0c-0.042-0.032-0.117-0.065-0.225-0.1-0.1-0.031-0.185-0.066-0.266-0.108l0.009 0.004c-0.172-0.093-0.258-0.218-0.258-0.376 0-0.082 0.023-0.155 0.069-0.219s0.113-0.115 0.199-0.151c0.087-0.036 0.184-0.054 0.292-0.054s0.205 0.020 0.289 0.059c0.085 0.039 0.15 0.094 0.197 0.166s0.071 0.153 0.071 0.244h-0.313c0-0.070-0.022-0.123-0.065-0.161-0.044-0.039-0.105-0.059-0.185-0.059-0.076 0-0.136 0.016-0.178 0.049-0.039 0.028-0.064 0.073-0.064 0.124 0 0.001 0 0.003 0 0.004v-0c0 0.049 0.025 0.090 0.074 0.124s0.123 0.065 0.22 0.094c0.178 0.053 0.307 0.12 0.389 0.199s0.122 0.178 0.122 0.295c0 0.132-0.050 0.235-0.149 0.309s-0.233 0.112-0.401 0.112c-0.117 0-0.223-0.021-0.319-0.064-0.090-0.038-0.164-0.099-0.219-0.174l-0.001-0.002c-0.047-0.070-0.075-0.157-0.075-0.249 0-0.003 0-0.006 0-0.009v0h0.314c0 0.167 0.1 0.251 0.3 0.251 0.075 0 0.133-0.015 0.174-0.045 0.038-0.027 0.063-0.071 0.063-0.121 0-0.002-0-0.004-0-0.006v0zM29.104 20.256h-0.465v1.263h-0.313v-1.263h-0.458v-0.253h1.236v0.253zM30.196 20.863h-0.6v0.406h0.704v0.251h-1.017v-1.516h1.015v0.253h-0.702v0.361h0.6v0.245zM31.045 20.965h-0.249v0.555h-0.313v-1.516h0.564c0.179 0 0.317 0.040 0.415 0.12s0.146 0.193 0.146 0.338c0 0.103-0.022 0.19-0.068 0.26-0.050 0.073-0.119 0.129-0.2 0.163l-0.003 0.001 0.328 0.62v0.015h-0.335l-0.284-0.555zM30.796 20.711h0.252c0.078 0 0.139-0.020 0.182-0.059 0.040-0.039 0.065-0.094 0.065-0.154 0-0.004-0-0.008-0-0.012l0 0.001c0-0.071-0.021-0.128-0.061-0.169s-0.102-0.061-0.186-0.061h-0.251v0.455zM32.689 20.985v0.534h-0.313v-1.516h0.592c0.114 0 0.214 0.021 0.3 0.063s0.153 0.101 0.2 0.178c0.047 0.076 0.070 0.164 0.070 0.262 0 0.149-0.051 0.266-0.153 0.352s-0.242 0.128-0.422 0.128h-0.274zM32.689 20.732h0.279c0.083 0 0.146-0.020 0.188-0.059 0.044-0.039 0.066-0.094 0.066-0.166 0-0.003 0-0.007 0-0.011 0-0.065-0.025-0.125-0.066-0.17l0 0c-0.044-0.046-0.104-0.069-0.181-0.071h-0.286v0.476zM34.666 20.863h-0.6v0.406h0.704v0.251h-1.017v-1.516h1.015v0.253h-0.702v0.361h0.6v0.245zM36.117 20.256h-0.465v1.263h-0.313v-1.263h-0.458v-0.253h1.236v0.253zM37.208 20.863h-0.6v0.406h0.704v0.251h-1.017v-1.516h1.014v0.253h-0.702v0.361h0.6v0.245zM38.057 20.965h-0.249v0.555h-0.312v-1.516h0.564c0.179 0 0.317 0.040 0.415 0.12s0.146 0.193 0.146 0.338c0 0.103-0.023 0.19-0.068 0.26-0.050 0.073-0.119 0.129-0.2 0.163l-0.003 0.001 0.328 0.62v0.015h-0.336l-0.284-0.555zM37.808 20.711h0.252c0.079 0 0.139-0.020 0.182-0.059 0.040-0.039 0.065-0.094 0.065-0.154 0-0.004-0-0.008-0-0.012l0 0.001c0-0.071-0.021-0.128-0.062-0.169s-0.102-0.061-0.186-0.061h-0.251v0.455zM39.644 21.122c0-0.003 0-0.006 0-0.009 0-0.051-0.024-0.097-0.062-0.126l-0-0c-0.042-0.032-0.117-0.065-0.225-0.1-0.1-0.031-0.185-0.066-0.267-0.108l0.009 0.004c-0.172-0.093-0.258-0.218-0.258-0.376 0-0.082 0.023-0.155 0.069-0.219s0.113-0.115 0.199-0.151c0.087-0.036 0.184-0.054 0.292-0.054 0.004-0 0.008-0 0.012-0 0.1 0 0.196 0.022 0.281 0.061l-0.004-0.002c0.085 0.039 0.15 0.094 0.197 0.166s0.071 0.153 0.071 0.244h-0.313c0-0.070-0.022-0.123-0.065-0.161-0.044-0.039-0.105-0.059-0.185-0.059-0.076 0-0.136 0.016-0.178 0.049-0.039 0.028-0.063 0.072-0.063 0.123 0 0.002 0 0.003 0 0.005v-0c0 0.049 0.025 0.090 0.074 0.124s0.123 0.065 0.22 0.094c0.178 0.053 0.307 0.12 0.389 0.199s0.122 0.178 0.122 0.295c0 0.132-0.049 0.235-0.149 0.309s-0.233 0.112-0.401 0.112c-0.003 0-0.007 0-0.010 0-0.112 0-0.218-0.023-0.313-0.066l0.005 0.002c-0.090-0.038-0.165-0.099-0.219-0.174l-0.001-0.002c-0.047-0.070-0.075-0.156-0.075-0.249 0-0.003 0-0.006 0-0.009v0h0.314c0 0.167 0.1 0.251 0.3 0.251 0.074 0 0.133-0.015 0.174-0.045 0.038-0.027 0.062-0.071 0.062-0.121 0-0.002-0-0.004-0-0.007v0z"></path>
</symbol>
<symbol id="icon-Client5" viewBox="0 0 60 32">
<path  d="M21.507 21.788c0.082 0.101 0.125 0.229 0.123 0.359 0 0.008 0.001 0.018 0.001 0.027 0 0.169-0.074 0.322-0.191 0.426l-0.001 0c-0.159 0.121-0.356 0.179-0.554 0.166h-0.974v-2.277h0.954c0.016-0.001 0.035-0.002 0.054-0.002 0.178 0 0.343 0.057 0.477 0.155l-0.002-0.002c0.114 0.096 0.186 0.239 0.186 0.398 0 0.010-0 0.019-0.001 0.029l0-0.001c0.006 0.125-0.034 0.249-0.111 0.348-0.074 0.090-0.176 0.153-0.291 0.178 0.129 0.024 0.246 0.092 0.329 0.195zM20.364 21.444h0.408c0.092 0.007 0.185-0.020 0.259-0.076 0.054-0.050 0.088-0.121 0.088-0.2 0-0.008-0-0.016-0.001-0.024l0 0.001c0-0.006 0.001-0.013 0.001-0.020 0-0.080-0.033-0.152-0.087-0.203l-0-0c-0.065-0.049-0.146-0.078-0.235-0.078-0.011 0-0.023 0-0.034 0.001l0.001-0h-0.401v0.597zM21.071 22.317c0.060-0.052 0.097-0.128 0.097-0.213 0-0.006-0-0.013-0.001-0.019l0 0.001c0-0.005 0-0.011 0-0.017 0-0.087-0.038-0.164-0.099-0.217l-0-0c-0.069-0.052-0.156-0.083-0.251-0.083-0.009 0-0.019 0-0.028 0.001l0.001-0h-0.427v0.626h0.433c0.097 0.006 0.194-0.022 0.274-0.079zM23.457 22.767l-0.53-0.89h-0.199v0.89h-0.457v-2.277h0.864c0.018-0.001 0.038-0.002 0.059-0.002 0.207 0 0.397 0.074 0.544 0.197l-0.001-0.001c0.128 0.131 0.207 0.311 0.207 0.509 0 0.163-0.054 0.314-0.145 0.435l0.001-0.002c-0.107 0.123-0.252 0.204-0.412 0.231l0.565 0.91h-0.497zM22.727 21.566h0.373c0.26 0 0.389-0.115 0.389-0.345 0-0.006 0.001-0.013 0.001-0.019 0-0.092-0.037-0.175-0.096-0.237l0 0c-0.070-0.058-0.16-0.094-0.259-0.094-0.012 0-0.024 0.001-0.037 0.002l0.002-0h-0.378l0.005 0.693zM25.952 22.308h-0.91l-0.161 0.459h-0.479l0.836-2.252h0.517l0.832 2.252h-0.479l-0.157-0.458zM25.83 21.963l-0.332-0.961-0.332 0.961h0.665zM29.076 22.767h-0.454l-1.016-1.548v1.548h-0.452v-2.277h0.452l1.016 1.557v-1.557h0.453v2.277zM31.662 22.221c-0.095 0.172-0.235 0.31-0.405 0.399l-0.005 0.003c-0.197 0.1-0.416 0.149-0.637 0.143h-0.807v-2.277h0.807c0.010-0 0.023-0 0.035-0 0.219 0 0.427 0.052 0.61 0.144l-0.008-0.004c0.173 0.087 0.316 0.226 0.41 0.397 0.089 0.174 0.142 0.38 0.142 0.597s-0.052 0.423-0.145 0.605l0.003-0.008zM31.143 22.167c0.125-0.145 0.201-0.335 0.201-0.543s-0.076-0.398-0.202-0.545l0.001 0.001c-0.138-0.121-0.319-0.195-0.518-0.195-0.017 0-0.034 0.001-0.051 0.002l0.002-0h-0.315v1.474h0.315c0.015 0.001 0.032 0.002 0.049 0.002 0.199 0 0.381-0.074 0.519-0.196l-0.001 0.001zM26.236 7.822s5.849 2.217 5.725 5.426v5.427s-5.845-2.219-5.723-5.427l-0.002-5.426zM37.172 17.404c1.047-0.732 2.312-1.225 3.681-1.372l0.035-0.003v-1.699c-1.564 0.617-2.839 1.685-3.698 3.043l-0.019 0.031z"></path>
<path  d="M36.509 17.916c0.913-1.821 2.451-3.216 4.325-3.924l0.055-0.018v-4.895s-8.331 3.158-8.154 7.727v7.727s0.371-0.141 0.955-0.406c0-0.247 0-0.496 0.027-0.747 0.183-2.196 1.223-4.119 2.781-5.456l0.011-0.009z"></path>
<path  d="M35.717 20.787c0.044-0.536 0.141-1.066 0.291-1.582-1.064 1.254-1.724 2.88-1.764 4.659l-0 0.008c0.678-0.326 1.203-0.608 1.716-0.909l-0.114 0.062c-0.1-0.474-0.157-1.019-0.157-1.577 0-0.232 0.010-0.462 0.029-0.69l-0.002 0.030zM36.048 20.814c-0.016 0.188-0.026 0.407-0.026 0.628 0 0.494 0.047 0.978 0.136 1.446l-0.008-0.048c2.276-1.367 4.833-3.48 4.735-6.033v-0.222c-1.695 0.196-3.189 0.934-4.333 2.034l0.002-0.002c-0.262 0.645-0.442 1.391-0.506 2.171l-0.002 0.027z"></path>
</symbol>
<symbol id="icon-Client6" viewBox="0 0 60 32">
<path  d="M30.485 15.414c-0.128-0.184-0.205-0.412-0.205-0.658 0-0.026 0.001-0.051 0.003-0.077l-0 0.003v-1.061c0-0.325 0.067-0.572 0.202-0.741s0.366-0.253 0.693-0.252c0.308 0 0.526 0.072 0.655 0.216 0.141 0.183 0.209 0.408 0.193 0.634v0.249h-0.55v-0.252c0-0.010 0-0.021 0-0.033 0-0.076-0.006-0.15-0.017-0.222l0.001 0.008c-0.009-0.059-0.037-0.11-0.078-0.147l-0-0c-0.049-0.036-0.11-0.058-0.176-0.058-0.008 0-0.016 0-0.024 0.001l0.001-0c-0.007-0.001-0.015-0.001-0.023-0.001-0.070 0-0.135 0.023-0.188 0.062l0.001-0.001c-0.046 0.041-0.079 0.097-0.091 0.16l-0 0.002c-0.016 0.086-0.023 0.174-0.022 0.262v1.287c-0.009 0.124 0.015 0.248 0.070 0.361 0.028 0.038 0.065 0.068 0.109 0.087l0.002 0.001c0.032 0.014 0.070 0.023 0.109 0.023 0.011 0 0.023-0.001 0.034-0.002l-0.001 0c0.007 0.001 0.015 0.001 0.023 0.001 0.065 0 0.125-0.022 0.173-0.060l-0.001 0c0.043-0.040 0.073-0.094 0.082-0.155l0-0.001c0.013-0.085 0.019-0.172 0.017-0.258v-0.261h0.55v0.238c0.001 0.020 0.002 0.043 0.002 0.066 0 0.226-0.072 0.434-0.194 0.604l0.002-0.003c-0.126 0.158-0.342 0.236-0.659 0.236s-0.556-0.084-0.692-0.259zM32.777 15.425c-0.139-0.165-0.209-0.406-0.209-0.724v-1.116c0-0.315 0.070-0.553 0.209-0.715s0.371-0.242 0.697-0.242c0.324 0 0.555 0.081 0.694 0.242s0.21 0.4 0.21 0.715v1.116c0 0.315-0.071 0.556-0.212 0.723s-0.371 0.249-0.692 0.249c-0.32 0-0.557-0.084-0.697-0.248zM33.731 15.158c0.050-0.103 0.073-0.217 0.066-0.33v-1.366c0.001-0.011 0.001-0.024 0.001-0.037 0-0.104-0.024-0.203-0.068-0.291l0.002 0.004c-0.028-0.039-0.066-0.070-0.111-0.088l-0.002-0.001c-0.032-0.014-0.069-0.021-0.107-0.021-0.013 0-0.026 0.001-0.039 0.003l0.001-0c-0.011-0.002-0.024-0.002-0.037-0.002-0.039 0-0.076 0.008-0.11 0.022l0.002-0.001c-0.046 0.020-0.084 0.050-0.112 0.088l-0.001 0.001c-0.050 0.101-0.073 0.212-0.066 0.324v1.372c-0.007 0.114 0.016 0.227 0.066 0.33 0.032 0.034 0.070 0.062 0.114 0.081l0.002 0.001c0.042 0.018 0.090 0.029 0.142 0.029s0.1-0.011 0.144-0.030l-0.002 0.001c0.045-0.020 0.084-0.047 0.116-0.082l0-0v-0.006zM35.040 12.661h0.593l0.446 2.059 0.456-2.059h0.577l0.058 2.971h-0.426l-0.045-2.065-0.44 2.065h-0.342l-0.456-2.072-0.042 2.072h-0.431l0.053-2.971zM37.833 12.661h0.923c0.532 0 0.797 0.281 0.797 0.844 0 0.539-0.28 0.807-0.84 0.807h-0.314v1.32h-0.57l0.004-2.971zM38.622 13.931c0.056 0.007 0.113 0.002 0.167-0.014s0.104-0.043 0.146-0.080c0.065-0.1 0.094-0.218 0.082-0.335 0-0.010 0.001-0.022 0.001-0.033 0-0.084-0.010-0.165-0.029-0.243l0.001 0.007c-0.009-0.031-0.023-0.059-0.042-0.082l0 0c-0.020-0.024-0.044-0.044-0.071-0.059l-0.001-0.001c-0.066-0.030-0.143-0.048-0.224-0.048-0.011 0-0.021 0-0.032 0.001l0.001-0h-0.221v0.887h0.221zM40.375 12.661h0.612l0.628 2.971h-0.531l-0.124-0.685h-0.546l-0.128 0.685h-0.539l0.628-2.971zM40.898 14.603l-0.213-1.247-0.213 1.247h0.426zM42.122 12.661h0.399l0.763 1.695v-1.695h0.473v2.971h-0.379l-0.768-1.769v1.769h-0.489l0.001-2.971zM44.865 14.5l-0.635-1.834h0.535l0.387 1.178 0.364-1.178h0.523l-0.627 1.834v1.133h-0.547v-1.133zM31.365 16.931v0.155h-0.465v1.207h-0.195v-1.207h-0.467v-0.155h1.127zM32.823 18.294h-0.15c-0.001 0-0.003 0-0.004 0-0.014 0-0.028-0.005-0.038-0.013l0 0c-0.011-0.008-0.020-0.018-0.025-0.031l-0-0-0.134-0.324h-0.645l-0.134 0.324c-0.004 0.014-0.011 0.027-0.021 0.037l0-0c-0.011 0.008-0.024 0.013-0.039 0.013-0.001 0-0.002-0-0.004-0h-0.15l0.57-1.362h0.198l0.577 1.357zM31.879 17.788h0.538l-0.228-0.555c-0.015-0.034-0.029-0.077-0.041-0.121l-0.002-0.007-0.021 0.072-0.021 0.057-0.226 0.554zM33.805 18.16c0.036 0.002 0.071 0.002 0.107 0 0.031-0.003 0.062-0.009 0.091-0.016 0.033-0.008 0.060-0.016 0.087-0.026l-0.004 0.002c0.025-0.010 0.050-0.021 0.076-0.033v-0.306h-0.228c-0.001 0-0.002 0-0.003 0-0.011 0-0.021-0.004-0.028-0.011l0 0c-0.007-0.006-0.011-0.014-0.011-0.024 0-0 0-0.001 0-0.001v0-0.105h0.442v0.522c-0.069 0.047-0.149 0.085-0.234 0.109l-0.006 0.001c-0.040 0.012-0.088 0.022-0.138 0.028l-0.005 0c-0.049 0.005-0.106 0.009-0.164 0.009-0.001 0-0.002 0-0.002 0h0c-0.002 0-0.004 0-0.006 0-0.101 0-0.197-0.019-0.286-0.053l0.005 0.002c-0.088-0.034-0.164-0.082-0.228-0.143l0 0c-0.062-0.060-0.111-0.132-0.146-0.212l-0.002-0.004c-0.033-0.081-0.052-0.175-0.052-0.273 0-0.003 0-0.007 0-0.010v0c-0-0.003-0-0.006-0-0.009 0-0.099 0.019-0.194 0.053-0.281l-0.002 0.005c0.033-0.081 0.083-0.154 0.147-0.216 0.065-0.061 0.143-0.11 0.228-0.142 0.098-0.035 0.201-0.052 0.305-0.051 0.053 0 0.106 0.004 0.159 0.012 0.046 0.007 0.092 0.019 0.135 0.035 0.040 0.014 0.078 0.032 0.114 0.054s0.068 0.045 0.1 0.071l-0.055 0.084c-0.005 0.008-0.011 0.014-0.018 0.018l-0 0c-0.007 0.004-0.016 0.007-0.026 0.007h-0c-0.013-0-0.025-0.004-0.035-0.011l0 0c-0.023-0.012-0.041-0.022-0.059-0.034l0.003 0.002c-0.022-0.013-0.047-0.026-0.073-0.036l-0.003-0.001c-0.029-0.012-0.064-0.022-0.101-0.029l-0.004-0.001c-0.041-0.008-0.089-0.012-0.137-0.012-0.003 0-0.005 0-0.008 0h0c-0.002-0-0.004-0-0.007-0-0.076 0-0.15 0.014-0.217 0.039l0.004-0.001c-0.065 0.025-0.121 0.062-0.167 0.108l0-0c-0.047 0.049-0.084 0.107-0.106 0.17-0.024 0.068-0.038 0.146-0.038 0.227s0.014 0.159 0.040 0.232l-0.002-0.005c0.025 0.064 0.064 0.123 0.114 0.172 0.047 0.047 0.103 0.083 0.166 0.108 0.073 0.023 0.149 0.033 0.226 0.027zM35.621 18.138h0.622v0.155h-0.812v-1.363h0.195l-0.005 1.207zM36.891 18.293h-0.195v-1.362h0.195v1.363zM37.616 16.938c0.012 0.006 0.021 0.015 0.029 0.025l0 0 0.833 1.027c-0.001-0.007-0.001-0.016-0.001-0.024s0-0.017 0.001-0.026l-0 0.001v-1.015h0.17v1.368h-0.098c-0.002 0-0.004 0-0.007 0-0.013 0-0.025-0.003-0.036-0.008l0.001 0c-0.012-0.007-0.022-0.016-0.030-0.026l-0-0-0.832-1.026v1.059h-0.163v-1.362h0.101c0.011 0 0.022 0.002 0.032 0.006zM40.083 16.931v0.15h-0.691v0.45h0.56v0.144h-0.56v0.465h0.691v0.15h-0.891v-1.359h0.891zM19.663 8.517l8.652 2.326v8.15l-8.652-2.324v-8.151zM19.109 7.822v9.242l9.761 2.625v-9.241l-9.761-2.625z"></path>
<path  d="M24.34 23.979l-9.762-2.627v-9.241l9.762 2.626v9.242z"></path>
<path  d="M19.27 8.412l8.54 2.297-3.632 3.439-8.54-2.298 3.633-3.438zM19.109 7.822l-4.531 4.289 9.762 2.626 4.529-4.289-9.761-2.626zM24.889 23.459l3.98-3.769-3.98-1.071v4.84z"></path>
</symbol>
<symbol id="icon-clock1" viewBox="0 0 32 32">
<path fill="#212121" style="fill: var(--color1, #212121)" d="M31.296 15.301c-0.001-8.452-6.855-15.303-15.308-15.301s-15.303 6.855-15.301 15.308c0.002 6.788 4.422 12.543 10.541 14.545l0.108 0.031c0.061 0.019 0.123 0.029 0.187 0.029 0.12 0 0.238-0.032 0.342-0.094 0.135-0.080 0.236-0.207 0.283-0.357l3.865-12.25c1.054-0.004 1.906-0.859 1.906-1.913 0-1.056-0.856-1.913-1.913-1.913-0.303 0-0.59 0.071-0.845 0.196l0.011-0.005-5.106-5.107c-0.114-0.11-0.271-0.179-0.443-0.179-0.352 0-0.638 0.286-0.638 0.638 0 0.172 0.068 0.328 0.179 0.443l-0-0 5.103 5.109c-0.121 0.241-0.191 0.525-0.191 0.826 0 0.602 0.283 1.137 0.723 1.48l0.004 0.003-3.682 11.673c-7.278-2.681-11.004-10.754-8.324-18.032s10.754-11.004 18.032-8.323c7.278 2.681 11.004 10.754 8.323 18.032-1.345 3.581-4.003 6.406-7.374 7.938l-0.088 0.036-0.398-1.874c-0.063-0.291-0.318-0.506-0.624-0.506-0.164 0-0.313 0.062-0.426 0.163l0.001-0.001-3.837 3.426c-0.132 0.117-0.214 0.287-0.214 0.477 0 0.283 0.185 0.524 0.441 0.606l0.005 0.001 4.899 1.563c0.058 0.020 0.126 0.031 0.196 0.031 0.352 0 0.637-0.285 0.637-0.637 0-0.047-0.005-0.093-0.015-0.138l0.001 0.004-0.391-1.839c5.528-2.374 9.329-7.772 9.329-14.057 0-0.011 0-0.023-0-0.034v0.002zM15.992 14.664c0.352 0 0.638 0.286 0.638 0.638s-0.285 0.638-0.638 0.638v0c-0.352 0-0.638-0.286-0.638-0.638s0.286-0.638 0.638-0.638v0zM18.092 29.528l2.184-1.948 0.603 2.84-2.787-0.892z"></path>
<path fill="#2196f3" style="fill: var(--color2, #2196f3)" d="M15.354 3.185v1.275c0 0.352 0.286 0.638 0.638 0.638s0.638-0.285 0.638-0.638v0-1.275c0-0.352-0.285-0.638-0.638-0.638s-0.638 0.285-0.638 0.638v0zM3.876 14.664c-0.352 0-0.638 0.286-0.638 0.638s0.285 0.638 0.638 0.638h1.275c0.352 0 0.638-0.286 0.638-0.638s-0.285-0.638-0.638-0.638h-1.275zM28.108 15.939c0.352 0 0.638-0.286 0.638-0.638s-0.285-0.638-0.638-0.638h-1.275c-0.352 0-0.638 0.286-0.638 0.638s0.285 0.638 0.638 0.638h1.275z"></path>
</symbol>
<symbol id="icon-company" viewBox="0 0 25 32">
<path fill="#afb1b8" style="fill: var(--color3, #afb1b8)" d="M10.447 1.806h0.084c0.156 0 0.324 0.015 0.49 0.030 0.734 0.052 1.463 0.162 2.18 0.329v-1.762c-0.652-0.172-1.42-0.299-2.207-0.357l-0.042-0.002c-0.254-0.020-0.571-0.035-0.889-0.043l-0.021-0h-0.263c-1.523 0.006-3.040 0.201-4.515 0.582-1.68 0.418-3.292 1.075-4.79 1.948v17.475c1.312-0.729 2.832-1.339 4.431-1.75l0.135-0.029c1.123-0.3 2.434-0.51 3.78-0.586l0.052-0.002h0.052c0.216-0.011 0.433-0.017 0.655-0.018v-1.791c-1.78 0.024-3.493 0.264-5.129 0.695l0.147-0.033c-0.603 0.157-1.185 0.326-1.731 0.513l-0.623 0.212v-13.626l0.266-0.128c1.89-0.918 4.096-1.513 6.424-1.649l0.047-0.002c0.008-0.001 0.018-0.001 0.028-0.001s0.020 0 0.029 0.001l-0.001-0c0.248-0.012 0.497-0.018 0.742-0.018h0.28c0.129 0.003 0.258 0.006 0.388 0.014z"></path>
<path fill="#afb1b8" style="fill: var(--color3, #afb1b8)" d="M14.837 3.651c-0.005 0-0.010 0-0.016 0-0.915 0-1.811-0.077-2.684-0.225l0.094 0.013c-0.277-0.047-0.55-0.103-0.814-0.164v17.275c1.12 0.277 2.271 0.412 3.425 0.404 1.607-0.007 3.162-0.218 4.644-0.61l-0.128 0.029c1.817-0.461 3.412-1.129 4.877-1.995l-0.085 0.047v-17.163c-1.311 0.728-2.83 1.338-4.429 1.751l-0.136 0.030c-1.551 0.399-3.146 0.603-4.746 0.609zM21.745 3.95l0.623-0.209v13.63l-0.266 0.129c-0.903 0.442-1.962 0.834-3.065 1.118l-0.119 0.026c-1.331 0.345-2.7 0.521-4.074 0.527-0.411 0-0.818-0.017-1.214-0.052l-0.426-0.038v-14.017l0.497 0.033c0.361 0.023 0.735 0.034 1.141 0.034 1.745-0.006 3.482-0.229 5.173-0.663 0.581-0.154 1.158-0.326 1.731-0.518zM1.684 25.977c-0.167-0.173-0.401-0.281-0.661-0.281-0.011 0-0.022 0-0.033 0.001l0.002-0c-0.004-0-0.009-0-0.014-0-0.139 0-0.272 0.028-0.393 0.078l0.007-0.003c-0.237 0.095-0.42 0.28-0.51 0.512l-0.002 0.006c-0.049 0.123-0.074 0.254-0.072 0.386v2.335c-0.006 0.164 0.026 0.328 0.092 0.479 0.055 0.12 0.135 0.226 0.234 0.313 0.093 0.078 0.203 0.135 0.32 0.166 0.114 0.031 0.231 0.048 0.349 0.048 0.13 0.001 0.258-0.026 0.377-0.081 0.351-0.156 0.591-0.5 0.591-0.901v-0.261h-0.61v0.208c0 0.004 0 0.008 0 0.013 0 0.070-0.013 0.137-0.038 0.199l0.001-0.004c-0.021 0.052-0.051 0.095-0.089 0.132l-0 0c-0.070 0.054-0.159 0.088-0.255 0.089h-0c-0.011 0.001-0.023 0.002-0.036 0.002-0.103 0-0.194-0.050-0.25-0.127l-0.001-0.001c-0.051-0.082-0.082-0.182-0.082-0.289 0-0.008 0-0.016 0.001-0.024l-0 0.001v-2.177c-0.004-0.121 0.022-0.24 0.075-0.349 0.056-0.087 0.153-0.143 0.262-0.143 0.013 0 0.025 0.001 0.038 0.002l-0.001-0c0.003-0 0.007-0 0.012-0 0.107 0 0.201 0.052 0.26 0.131l0.001 0.001c0.063 0.082 0.102 0.187 0.102 0.301 0 0.004-0 0.009-0 0.013v-0.001 0.202h0.604v-0.238c0-0.003 0-0.007 0-0.011 0-0.143-0.027-0.28-0.077-0.405l0.003 0.007c-0.048-0.128-0.117-0.237-0.205-0.329l0 0zM5.31 25.951c-0.186-0.158-0.429-0.255-0.694-0.257h-0c-0.124 0-0.248 0.023-0.364 0.066-0.252 0.090-0.451 0.276-0.557 0.511l-0.002 0.006c-0.062 0.142-0.092 0.297-0.089 0.452v2.239c-0.004 0.158 0.026 0.314 0.089 0.458 0.055 0.121 0.135 0.228 0.236 0.313 0.094 0.086 0.203 0.154 0.322 0.197 0.117 0.043 0.24 0.065 0.364 0.066 0.267-0.001 0.51-0.1 0.695-0.264l-0.001 0.001c0.097-0.087 0.176-0.194 0.23-0.313 0.063-0.144 0.093-0.301 0.089-0.458v-2.239c0-0.006 0-0.013 0-0.020 0-0.156-0.033-0.305-0.092-0.439l0.003 0.007c-0.057-0.128-0.135-0.237-0.23-0.327l-0-0zM5.025 28.969c0.001 0.010 0.002 0.023 0.002 0.035 0 0.114-0.047 0.216-0.123 0.289l-0 0c-0.077 0.065-0.178 0.105-0.287 0.105s-0.21-0.040-0.288-0.105l0.001 0.001c-0.076-0.073-0.123-0.175-0.123-0.289 0-0.012 0.001-0.025 0.002-0.037l-0 0.002v-2.239c-0.001-0.010-0.001-0.022-0.001-0.034 0-0.113 0.047-0.216 0.123-0.289l0-0c0.077-0.065 0.178-0.105 0.287-0.105s0.21 0.040 0.288 0.105l-0.001-0.001c0.076 0.073 0.123 0.175 0.123 0.289 0 0.012-0.001 0.025-0.002 0.037l0-0.002v2.24zM10.072 29.969v-4.24h-0.586l-0.771 2.244h-0.010l-0.777-2.244h-0.58v4.239h0.606v-2.578h0.011l0.593 1.823h0.302l0.598-1.823h0.010v2.578h0.606zM13.513 26.027c-0.094-0.105-0.211-0.185-0.343-0.232-0.124-0.042-0.267-0.066-0.416-0.066-0.008 0-0.016 0-0.024 0l0.001-0h-0.9v4.24h0.604v-1.656h0.311c0.189 0.009 0.376-0.031 0.545-0.116 0.138-0.078 0.25-0.188 0.329-0.32l0.002-0.004c0.070-0.113 0.117-0.238 0.139-0.369 0.021-0.133 0.033-0.287 0.033-0.444 0-0.013-0-0.027-0-0.040l0 0.002c0.006-0.203-0.014-0.407-0.059-0.606-0.043-0.153-0.12-0.284-0.223-0.39l0 0zM13.201 27.319c-0.003 0.081-0.023 0.157-0.057 0.224l0.001-0.003c-0.035 0.065-0.089 0.116-0.154 0.147l-0.002 0.001c-0.075 0.034-0.162 0.054-0.254 0.054-0.011 0-0.022-0-0.033-0.001l0.002 0h-0.276v-1.441h0.311c0.009-0 0.019-0.001 0.029-0.001 0.088 0 0.172 0.020 0.247 0.055l-0.004-0.002c0.062 0.036 0.111 0.090 0.141 0.154l0.001 0.002c0.033 0.074 0.051 0.155 0.053 0.236v0.282c0 0.098 0.006 0.201 0 0.291h-0.006zM16.374 25.729h-0.495l-0.934 4.24h0.604l0.177-0.911h0.823l0.178 0.911h0.604l-0.958-4.24zM15.817 28.481l0.297-1.537h0.011l0.295 1.537h-0.604zM20.277 28.283h-0.011l-0.913-2.554h-0.58v4.24h0.604v-2.55h0.012l0.923 2.549h0.569v-4.239h-0.604v2.554zM23.968 25.729l-0.486 1.686h-0.012l-0.486-1.686h-0.639l0.83 2.448v1.791h0.604v-1.791l0.83-2.447h-0.64zM0 31.166h0.291v0.817h0.198v-0.817h0.289v-0.167h-0.778v0.168zM2.447 30.998l-0.382 0.985h0.21l0.081-0.224h0.392l0.084 0.224h0.215l-0.391-0.985h-0.21zM2.417 31.593l0.134-0.365 0.134 0.365h-0.268zM4.866 31.62h0.228v0.127c-0.063 0.051-0.145 0.082-0.234 0.083h-0c-0.004 0-0.009 0-0.014 0-0.079 0-0.149-0.037-0.195-0.094l-0-0c-0.046-0.065-0.073-0.147-0.073-0.234 0-0.008 0-0.016 0.001-0.023l-0 0.001c0-0.219 0.095-0.329 0.283-0.329 0.006-0.001 0.014-0.001 0.021-0.001 0.097 0 0.178 0.067 0.201 0.157l0 0.001 0.194-0.038c-0.042-0.192-0.18-0.289-0.417-0.289-0.004-0-0.008-0-0.013-0-0.127 0-0.244 0.048-0.331 0.127l0-0c-0.088 0.087-0.143 0.208-0.143 0.342 0 0.013 0 0.026 0.002 0.038l-0-0.002c-0 0.007-0 0.015-0 0.023 0 0.132 0.048 0.254 0.127 0.347l-0.001-0.001c0.087 0.090 0.209 0.146 0.343 0.146 0.011 0 0.021-0 0.032-0.001l-0.001 0c0.005 0 0.010 0 0.016 0 0.155 0 0.296-0.060 0.402-0.157l-0 0v-0.388h-0.426v0.166zM7.337 30.998h-0.199v0.985h0.689v-0.167h-0.49v-0.817zM9.426 30.998h-0.199v0.985h0.199v-0.985zM11.468 31.655l-0.403-0.657h-0.193v0.985h0.185v-0.643l0.396 0.643h0.198v-0.985h-0.182v0.658zM13.315 31.549h0.49v-0.167h-0.49v-0.215h0.527v-0.168h-0.727v0.985h0.747v-0.167h-0.548v-0.266zM17.792 31.386h-0.388v-0.388h-0.198v0.984h0.198v-0.431h0.388v0.431h0.198v-0.985h-0.197v0.388zM19.649 31.549h0.492v-0.167h-0.492v-0.215h0.529v-0.168h-0.726v0.985h0.746v-0.167h-0.548v-0.266zM22.168 31.55c0.171-0.027 0.258-0.118 0.258-0.274 0.001-0.008 0.002-0.018 0.002-0.028 0-0.079-0.038-0.148-0.098-0.191l-0.001-0c-0.073-0.037-0.159-0.059-0.25-0.059-0.014 0-0.027 0-0.040 0.001l0.002-0h-0.417v0.984h0.198v-0.412h0.039c0.005-0 0.010-0 0.016-0 0.039 0 0.076 0.008 0.109 0.023l-0.002-0.001c0.029 0.018 0.053 0.042 0.070 0.072l0.215 0.313h0.236l-0.12-0.192c-0.054-0.096-0.128-0.175-0.215-0.235l-0.002-0.002zM21.969 31.413h-0.146v-0.247h0.156c0.012-0.001 0.027-0.002 0.042-0.002 0.057 0 0.111 0.009 0.163 0.026l-0.004-0.001c0.026 0.024 0.043 0.058 0.043 0.096 0 0.042-0.020 0.080-0.052 0.104l-0 0c-0.049 0.016-0.106 0.025-0.164 0.025-0.013 0-0.026-0-0.039-0.001l0.002 0zM24.068 31.549h0.49v-0.167h-0.49v-0.215h0.529v-0.168h-0.728v0.985h0.747v-0.167h-0.548v-0.266z"></path>
</symbol>
<symbol id="icon-company2" viewBox="0 0 31 32">
<path fill="#afb1b8" style="fill: var(--color3, #afb1b8)" d="M4.722 31.103c0.023 0.001 0.044 0.010 0.060 0.025v0l0.153 0.161c-0.119 0.13-0.266 0.234-0.431 0.304-0.194 0.077-0.401 0.115-0.61 0.109-0.009 0-0.020 0-0.031 0-0.196 0-0.383-0.038-0.554-0.106l0.010 0.004c-0.332-0.134-0.588-0.397-0.709-0.725l-0.003-0.009c-0.062-0.164-0.098-0.354-0.098-0.552 0-0.007 0-0.013 0-0.020v0.001c-0-0.006-0-0.014-0-0.021 0-0.199 0.039-0.388 0.109-0.562l-0.004 0.010c0.067-0.165 0.168-0.316 0.298-0.444 0.13-0.127 0.286-0.225 0.458-0.29 0.189-0.070 0.39-0.104 0.592-0.102 0.188-0.004 0.375 0.027 0.549 0.093 0.152 0.063 0.291 0.149 0.412 0.257l-0.128 0.171c-0.009 0.012-0.020 0.023-0.032 0.031l-0 0c-0.013 0.009-0.028 0.014-0.045 0.014-0.002 0-0.004-0-0.006-0l0 0c-0.021-0.001-0.040-0.008-0.056-0.019l0 0-0.068-0.045-0.096-0.059c-0.087-0.046-0.189-0.082-0.296-0.101l-0.006-0.001c-0.063-0.011-0.135-0.018-0.209-0.018-0.007 0-0.013 0-0.020 0h0.001c-0.005-0-0.010-0-0.016-0-0.147 0-0.288 0.028-0.417 0.079l0.008-0.003c-0.13 0.051-0.241 0.124-0.333 0.216l0-0c-0.095 0.099-0.169 0.216-0.216 0.342-0.054 0.145-0.081 0.298-0.079 0.452-0.002 0.156 0.025 0.313 0.078 0.46 0.047 0.126 0.119 0.242 0.213 0.341 0.088 0.093 0.196 0.165 0.318 0.212 0.125 0.049 0.259 0.074 0.394 0.073 0.078 0.001 0.156-0.004 0.234-0.015 0.127-0.015 0.247-0.057 0.354-0.122 0.054-0.034 0.104-0.071 0.152-0.113 0.019-0.017 0.044-0.029 0.072-0.030h0zM9.144 30.296c0.002 0.194-0.033 0.387-0.103 0.568-0.067 0.172-0.165 0.319-0.288 0.44l-0 0c-0.126 0.123-0.276 0.221-0.444 0.286l-0.009 0.003c-0.173 0.065-0.373 0.102-0.582 0.102s-0.409-0.037-0.594-0.106l0.012 0.004c-0.175-0.069-0.325-0.167-0.45-0.29l0 0c-0.123-0.123-0.222-0.271-0.288-0.436l-0.003-0.009c-0.065-0.169-0.103-0.364-0.103-0.568s0.038-0.399 0.107-0.579l-0.004 0.011c0.065-0.166 0.164-0.318 0.29-0.447 0.126-0.119 0.276-0.214 0.441-0.276l0.009-0.003c0.173-0.066 0.373-0.104 0.582-0.104s0.409 0.038 0.594 0.108l-0.012-0.004c0.17 0.066 0.324 0.164 0.452 0.29 0.127 0.127 0.224 0.275 0.289 0.439 0.071 0.182 0.106 0.376 0.104 0.571zM8.742 30.296c0-0.007 0-0.016 0-0.024 0-0.155-0.027-0.303-0.076-0.441l0.003 0.009c-0.087-0.256-0.278-0.457-0.522-0.554l-0.006-0.002c-0.126-0.047-0.271-0.075-0.423-0.075s-0.297 0.027-0.432 0.078l0.009-0.003c-0.251 0.099-0.443 0.299-0.528 0.55l-0.002 0.006c-0.097 0.298-0.097 0.615 0 0.912 0.087 0.256 0.279 0.457 0.524 0.552l0.006 0.002c0.273 0.097 0.573 0.097 0.846 0 0.124-0.048 0.234-0.121 0.324-0.214 0.092-0.1 0.162-0.216 0.205-0.341 0.052-0.147 0.076-0.301 0.073-0.456zM12.16 30.774l0.041 0.102c0.015-0.036 0.028-0.069 0.044-0.102 0.017-0.040 0.034-0.073 0.052-0.105l-0.003 0.005 0.978-1.694c0.019-0.030 0.036-0.048 0.056-0.053s0.043-0.009 0.066-0.009c0.005 0 0.010 0 0.015 0l-0.001-0h0.289v2.755h-0.342v-2.11c-0.001-0.014-0.001-0.031-0.001-0.048s0.001-0.033 0.002-0.050l-0 0.002-0.984 1.718c-0.013 0.026-0.033 0.048-0.057 0.062l-0.001 0c-0.023 0.014-0.052 0.022-0.082 0.022-0.001 0-0.002 0-0.002-0h-0.055c-0.030 0.001-0.060-0.007-0.084-0.022s-0.045-0.036-0.058-0.062l-0-0.001-1.012-1.73v2.212h-0.331v-2.75h0.289c0.004-0 0.009-0 0.014-0 0.024 0 0.046 0.003 0.068 0.010l-0.002-0c0.024 0.011 0.042 0.029 0.053 0.052l0 0.001 0.999 1.696c0.018 0.028 0.035 0.060 0.048 0.094l0.001 0.004zM15.841 30.638v1.031h-0.383v-2.75h0.854c0.161-0.003 0.322 0.017 0.476 0.060 0.124 0.034 0.239 0.092 0.337 0.171 0.085 0.074 0.15 0.167 0.191 0.27 0.045 0.112 0.067 0.232 0.066 0.352 0.002 0.121-0.022 0.24-0.071 0.352-0.049 0.109-0.118 0.202-0.205 0.274l-0.001 0.001c-0.095 0.080-0.209 0.143-0.333 0.181l-0.007 0.002c-0.149 0.045-0.305 0.067-0.461 0.064l-0.463-0.007zM15.841 30.342h0.464c0.1 0.002 0.201-0.013 0.296-0.042 0.083-0.027 0.154-0.068 0.215-0.12l-0.001 0.001c0.056-0.049 0.1-0.11 0.129-0.178l0.001-0.003c0.029-0.066 0.046-0.144 0.046-0.225 0-0.003-0-0.005-0-0.008v0c0-0.008 0.001-0.018 0.001-0.028 0-0.071-0.015-0.138-0.041-0.199l0.001 0.003c-0.032-0.074-0.077-0.137-0.133-0.188l-0-0c-0.126-0.094-0.285-0.15-0.457-0.15-0.020 0-0.040 0.001-0.060 0.002l0.003-0h-0.464v1.134zM20.987 31.673h-0.302c-0.002 0-0.004 0-0.006 0-0.030 0-0.057-0.010-0.079-0.026l0 0c-0.021-0.017-0.038-0.038-0.049-0.063l-0-0.001-0.26-0.665h-1.307l-0.27 0.665c-0.011 0.025-0.027 0.046-0.047 0.061l-0 0c-0.022 0.017-0.051 0.028-0.082 0.028-0.002 0-0.003-0-0.005-0h-0.302l1.148-2.756h0.398l1.164 2.756zM19.092 30.65h1.079l-0.455-1.122c-0.030-0.071-0.060-0.157-0.083-0.245l-0.003-0.013-0.044 0.144c-0.015 0.049-0.029 0.088-0.045 0.126l0.003-0.009-0.452 1.119zM22.64 28.93c0.023 0.013 0.043 0.030 0.058 0.050l1.674 2.076v-2.139h0.342v2.756h-0.191c-0.001 0-0.003 0-0.005 0-0.027 0-0.052-0.006-0.074-0.017l0.001 0c-0.024-0.014-0.044-0.031-0.061-0.051l-0-0-1.674-2.075c0.002 0.031 0.002 0.063 0 0.095v2.049h-0.342v-2.756h0.203c0.024 0 0.047 0.004 0.068 0.013zM27.537 30.577v1.094h-0.383v-1.094l-1.058-1.66h0.342c0.002-0 0.005-0 0.007-0 0.028 0 0.054 0.009 0.075 0.024l-0-0c0.021 0.018 0.038 0.038 0.052 0.061l0.001 0.001 0.662 1.070c0.045 0.070 0.085 0.151 0.114 0.236l0.002 0.008 0.050-0.118c0.019-0.043 0.040-0.086 0.066-0.126l0.653-1.078c0.014-0.022 0.031-0.042 0.050-0.059l0-0c0.020-0.017 0.047-0.027 0.076-0.027 0.002 0 0.004 0 0.006 0h0.346l-1.060 1.667zM11.971 24.293c0.167 0.020 0.335 0.037 0.506 0.051 2.582-1.101 4.767-2.902 6.281-5.18s2.29-4.93 2.231-7.625l-2.846-2.712c0.189 0.894 0.297 1.921 0.297 2.974 0 2.015-0.396 3.937-1.115 5.694l0.036-0.1c-1.090 2.731-2.957 5.12-5.39 6.899z"></path>
<path fill="#afb1b8" style="fill: var(--color3, #afb1b8)" d="M10.954 24.167l0.077 0.015c2.601-1.773 4.583-4.247 5.692-7.104 0.627-1.564 0.991-3.378 0.991-5.276 0-1.296-0.17-2.553-0.488-3.748l0.023 0.101-4.054-3.862c1.269 2.397 2.015 5.239 2.015 8.255 0 0.701-0.040 1.393-0.119 2.074l0.008-0.083c-0.397 3.519-1.834 6.857-4.144 9.628zM24.704 14.724c-0.688 2.962-2.361 5.632-4.77 7.616-0.665 0.553-1.406 1.066-2.191 1.51l-0.075 0.039c2.039-0.578 3.804-1.556 5.285-2.851l-0.016 0.013c1.465-1.281 2.625-2.875 3.381-4.679l0.031-0.084-1.645-1.565z"></path>
<path fill="#afb1b8" style="fill: var(--color3, #afb1b8)" d="M24.060 14.288l-2.341-2.23c-0.053 2.681-0.865 5.162-2.23 7.249l0.032-0.053c-1.394 2.169-3.373 3.943-5.729 5.137h0.012c0.525 0 1.049-0.030 1.571-0.089 2.251-0.883 4.15-2.237 5.65-3.95l0.014-0.017c1.454-1.66 2.512-3.704 3.005-5.958l0.016-0.089zM11.294 2.664l-2.793-2.664c-2.497 0.919-4.644 2.535-6.16 4.636s-2.333 4.589-2.34 7.139c0.010 2.818 1.005 5.552 2.829 7.77s4.372 3.793 7.242 4.476c2.562-2.973 4.061-6.647 4.281-10.488s-0.851-7.648-3.059-10.87zM30.512 13.878c-0.010-3.343-1.409-6.547-3.89-8.91s-5.843-3.696-9.352-3.706c-1.622-0.002-3.23 0.284-4.741 0.841l17.099 16.29c0.559-1.335 0.884-2.886 0.884-4.513 0-0 0-0.001 0-0.001v0z"></path>
</symbol>
<symbol id="icon-companytagline" viewBox="0 0 62 32">
<path fill="#afb1b8" style="fill: var(--color3, #afb1b8)" d="M31.123 14.854c-0.251-0.36-0.401-0.806-0.401-1.287 0-0.050 0.002-0.101 0.005-0.15l-0 0.007v-2.074c0-0.637 0.131-1.12 0.394-1.45s0.715-0.495 1.356-0.494c0.602 0 1.030 0.141 1.282 0.422 0.275 0.359 0.41 0.798 0.378 1.241v0.487h-1.076v-0.494c0-0.019 0.001-0.041 0.001-0.064 0-0.148-0.012-0.293-0.034-0.435l0.002 0.016c-0.017-0.115-0.073-0.214-0.153-0.287l-0-0c-0.095-0.071-0.215-0.113-0.345-0.113-0.016 0-0.032 0.001-0.048 0.002l0.002-0c-0.014-0.001-0.029-0.002-0.045-0.002-0.137 0-0.264 0.045-0.367 0.121l0.002-0.001c-0.090 0.081-0.154 0.19-0.178 0.313l-0.001 0.004c-0.031 0.169-0.045 0.341-0.042 0.513v2.518c-0.017 0.243 0.031 0.486 0.138 0.707 0.055 0.075 0.128 0.134 0.212 0.171l0.003 0.001c0.063 0.027 0.136 0.044 0.213 0.044 0.023 0 0.045-0.001 0.067-0.004l-0.003 0c0.013 0.001 0.029 0.002 0.044 0.002 0.128 0 0.245-0.044 0.338-0.117l-0.001 0.001c0.084-0.079 0.142-0.184 0.16-0.303l0-0.003c0.026-0.167 0.037-0.336 0.034-0.504v-0.511h1.076v0.466c0.003 0.038 0.004 0.083 0.004 0.129 0 0.441-0.141 0.85-0.38 1.182l0.004-0.006c-0.247 0.308-0.669 0.462-1.288 0.462s-1.088-0.164-1.354-0.506zM35.608 14.876c-0.272-0.323-0.408-0.794-0.408-1.416v-2.183c0-0.616 0.136-1.082 0.408-1.399s0.726-0.474 1.364-0.473c0.633 0 1.085 0.158 1.358 0.473 0.271 0.317 0.41 0.783 0.41 1.399v2.183c0 0.616-0.139 1.089-0.415 1.414s-0.726 0.487-1.353 0.487c-0.626 0-1.090-0.164-1.364-0.485zM37.473 14.352c0.097-0.202 0.142-0.424 0.129-0.646v-2.672c0.001-0.021 0.002-0.047 0.002-0.072 0-0.204-0.048-0.397-0.133-0.569l0.003 0.007c-0.056-0.076-0.13-0.136-0.216-0.173l-0.003-0.001c-0.062-0.027-0.135-0.042-0.211-0.042-0.026 0-0.051 0.002-0.076 0.005l0.003-0c-0.022-0.003-0.047-0.005-0.073-0.005-0.077 0-0.15 0.016-0.216 0.044l0.004-0.001c-0.090 0.038-0.165 0.098-0.22 0.172l-0.001 0.001c-0.097 0.197-0.142 0.415-0.129 0.633v2.685c-0.014 0.223 0.031 0.444 0.129 0.646 0.063 0.067 0.138 0.121 0.223 0.158l0.004 0.002c0.082 0.036 0.177 0.057 0.277 0.057s0.195-0.021 0.281-0.059l-0.005 0.002c0.089-0.039 0.164-0.093 0.226-0.16l0-0v-0.013zM40.035 9.468h1.16l0.872 4.028 0.892-4.028h1.128l0.113 5.813h-0.833l-0.089-4.040-0.861 4.040h-0.669l-0.892-4.054-0.083 4.054h-0.843l0.104-5.812zM45.5 9.468h1.806c1.040 0 1.56 0.55 1.56 1.651 0 1.054-0.547 1.58-1.643 1.579h-0.614v2.583h-1.115l0.007-5.812zM47.043 11.952c0.11 0.014 0.222 0.004 0.327-0.028 0.106-0.031 0.204-0.085 0.286-0.155 0.128-0.197 0.184-0.427 0.16-0.657 0.001-0.020 0.001-0.044 0.001-0.067 0-0.163-0.020-0.322-0.057-0.474l0.003 0.014c-0.017-0.062-0.045-0.115-0.083-0.161l0.001 0.001c-0.039-0.047-0.086-0.087-0.139-0.116l-0.002-0.001c-0.129-0.059-0.279-0.094-0.437-0.094-0.021 0-0.042 0.001-0.062 0.002l0.003-0h-0.433v1.736h0.433zM50.474 9.468h1.197l1.229 5.813h-1.039l-0.243-1.341h-1.068l-0.25 1.341h-1.054l1.229-5.812zM51.497 13.267l-0.417-2.44-0.417 2.44h0.834zM53.891 9.468h0.781l1.494 3.316v-3.316h0.925v5.812h-0.742l-1.503-3.462v3.462h-0.957l0.002-5.812zM59.258 13.064l-1.242-3.588h1.046l0.758 2.305 0.711-2.305h1.023l-1.226 3.588v2.216h-1.070v-2.216zM32.845 17.822v0.304h-0.91v2.362h-0.381v-2.362h-0.914v-0.304h2.205zM35.697 20.488h-0.294c-0.002 0-0.005 0-0.008 0-0.028 0-0.054-0.010-0.075-0.026l0 0c-0.022-0.015-0.038-0.036-0.048-0.060l-0-0.001-0.263-0.633h-1.262l-0.264 0.633c-0.008 0.028-0.022 0.052-0.040 0.072l0-0c-0.021 0.016-0.047 0.025-0.076 0.025-0.002 0-0.005-0-0.007-0h-0.294l1.115-2.666h0.387l1.128 2.655zM33.85 19.498h1.053l-0.446-1.085c-0.028-0.067-0.057-0.15-0.080-0.236l-0.003-0.014-0.042 0.141-0.040 0.111-0.442 1.083zM37.619 20.226c0.070 0.003 0.139 0.003 0.209 0 0.061-0.006 0.12-0.017 0.179-0.032 0.064-0.015 0.117-0.032 0.169-0.052l-0.009 0.003c0.049-0.019 0.098-0.042 0.15-0.065v-0.6h-0.446c-0.002 0-0.003 0-0.005 0-0.021 0-0.041-0.008-0.055-0.021l0 0c-0.014-0.011-0.022-0.028-0.022-0.047 0-0.001 0-0.001 0-0.002v0-0.205h0.865v1.022c-0.135 0.092-0.291 0.166-0.459 0.214l-0.012 0.003c-0.079 0.023-0.173 0.043-0.27 0.055l-0.009 0.001c-0.096 0.011-0.208 0.017-0.321 0.017-0.001 0-0.003 0-0.004 0h0c-0.004 0-0.008 0-0.013 0-0.197 0-0.386-0.037-0.56-0.103l0.011 0.004c-0.173-0.067-0.321-0.161-0.446-0.279l0.001 0.001c-0.12-0.117-0.218-0.258-0.285-0.414l-0.003-0.008c-0.065-0.158-0.102-0.342-0.102-0.534 0-0.007 0-0.013 0-0.020v0.001c-0-0.006-0-0.012-0-0.019 0-0.194 0.037-0.379 0.104-0.549l-0.004 0.010c0.064-0.158 0.162-0.301 0.287-0.422 0.127-0.12 0.279-0.214 0.446-0.277 0.191-0.068 0.394-0.102 0.598-0.099 0.104 0 0.207 0.007 0.31 0.023 0.090 0.014 0.179 0.036 0.264 0.067 0.079 0.028 0.153 0.063 0.223 0.106 0.069 0.042 0.134 0.088 0.195 0.139l-0.108 0.165c-0.009 0.015-0.021 0.027-0.036 0.036l-0 0c-0.015 0.009-0.032 0.014-0.051 0.014h-0c-0.026-0.001-0.049-0.008-0.069-0.021l0.001 0c-0.044-0.023-0.080-0.043-0.114-0.066l0.005 0.003c-0.042-0.026-0.092-0.050-0.143-0.070l-0.007-0.002c-0.057-0.023-0.126-0.043-0.197-0.058l-0.008-0.001c-0.081-0.015-0.173-0.023-0.268-0.023-0.005 0-0.011 0-0.016 0h0.001c-0.004-0-0.009-0-0.013-0-0.15 0-0.293 0.027-0.425 0.077l0.008-0.003c-0.128 0.049-0.237 0.121-0.328 0.211l0-0c-0.093 0.096-0.163 0.209-0.207 0.332-0.047 0.132-0.075 0.285-0.075 0.444s0.027 0.312 0.078 0.454l-0.003-0.009c0.049 0.125 0.125 0.24 0.223 0.335 0.092 0.092 0.202 0.163 0.326 0.211 0.142 0.046 0.292 0.064 0.442 0.053zM41.172 20.184h1.217v0.304h-1.59v-2.666h0.381l-0.009 2.362zM43.656 20.487h-0.381v-2.664h0.381v2.666zM45.074 17.834c0.022 0.013 0.042 0.029 0.058 0.049l1.63 2.010c-0.001-0.014-0.002-0.031-0.002-0.048s0.001-0.033 0.002-0.050l-0 0.002v-1.986h0.333v2.676h-0.192c-0.004 0-0.009 0.001-0.013 0.001-0.025 0-0.049-0.006-0.071-0.016l0.001 0c-0.023-0.014-0.043-0.031-0.060-0.050l-0-0-1.628-2.007v2.072h-0.319v-2.665h0.198c0.022 0 0.043 0.004 0.063 0.013zM49.901 17.822v0.294h-1.351v0.88h1.095v0.282h-1.095v0.91h1.351v0.294h-1.743v-2.659h1.743zM9.95 1.359l16.929 4.55v15.946l-16.927-4.547v-15.949zM8.865 0v18.081l19.098 5.135v-18.080l-19.098-5.137z"></path>
<path fill="#afb1b8" style="fill: var(--color3, #afb1b8)" d="M19.1 31.61l-19.1-5.139v-18.080l19.1 5.137v18.082z"></path>
<path fill="#afb1b8" style="fill: var(--color3, #afb1b8)" d="M9.181 1.155l16.707 4.493-7.105 6.728-16.71-4.495 7.107-6.727zM8.865 0l-8.865 8.392 19.1 5.137 8.863-8.392-19.098-5.137zM20.175 30.593l7.787-7.374-7.787-2.096v9.47z"></path>
</symbol>
<symbol id="icon-envelopehover" viewBox="0 0 43 32">
<path fill="#2196f3" style="fill: var(--color2, #2196f3)" d="M38.667 0h-34.667c-2.206 0-4 1.675-4 3.734v22.404c0 2.059 1.794 3.734 4 3.734h34.667c2.206 0 4-1.675 4-3.734v-22.404c0-2.059-1.794-3.734-4-3.734zM38.667 2.489c0.181 0 0.353 0.035 0.511 0.096l-17.844 14.437-17.844-14.437c0.158-0.061 0.33-0.096 0.511-0.096h34.667zM38.667 27.383h-34.667c-0.736 0-1.333-0.558-1.333-1.245v-20.922l17.793 14.395c0.251 0.203 0.563 0.304 0.874 0.304s0.622-0.101 0.874-0.304l17.793-14.395v20.922c0 0.687-0.598 1.245-1.333 1.245z"></path>
</symbol>
<symbol id="icon-envelope" viewBox="0 0 43 32">
<path   d="M38.667 0h-34.667c-2.205 0-4 1.675-4 3.733v22.405c0 2.059 1.795 3.733 4 3.733h34.667c2.205 0 4-1.675 4-3.733v-22.405c0-2.059-1.795-3.733-4-3.733zM38.667 2.488c0.181 0 0.355 0.037 0.512 0.099l-17.845 14.437-17.845-14.437c0.152-0.062 0.327-0.098 0.512-0.099h34.667zM38.667 27.381h-34.667c-0.736 0-1.333-0.557-1.333-1.243v-20.923l17.792 14.395c0.235 0.189 0.537 0.304 0.866 0.304 0.003 0 0.006 0 0.009-0h-0c0.002 0 0.005 0 0.008 0 0.329 0 0.631-0.115 0.869-0.306l-0.003 0.002 17.792-14.395v20.923c0 0.685-0.597 1.243-1.333 1.243z"></path>
</symbol>
<symbol id="icon-facebook1" viewBox="0 0 32 32">
<path  d="M21.328 5.312h2.923v-5.088c-1.232-0.143-2.66-0.224-4.107-0.224-0.052 0-0.104 0-0.157 0l0.008-0c-4.213 0-7.099 2.65-7.099 7.52v4.48h-4.646v5.688h4.646v14.312h5.698v-14.31h4.461l0.707-5.688h-5.168v-3.922c0-1.643 0.443-2.768 2.734-2.768z"></path>
</symbol>
<symbol id="icon-fosterpeters" viewBox="0 0 60 32">
<path fill="#afb1b8" style="fill: var(--color3, #afb1b8)" d="M9.229 9.548h-0.002c-1.684 0-3.049 1.331-3.049 2.971v0.002c0 1.64 1.365 2.971 3.048 2.971h0.002c1.684 0 3.049-1.331 3.049-2.971v-0.002c0-1.64-1.365-2.97-3.049-2.97zM31.73 8.599c-0.005-2.279-0.936-4.463-2.59-6.075-1.651-1.611-3.893-2.519-6.231-2.524-2.339 0.004-4.581 0.912-6.236 2.523s-2.585 3.797-2.59 6.076v12.566s17.645-1.915 17.647-12.564v-0.002zM0 25.289c0.008 1.659 0.697 3.155 1.801 4.226l0.002 0.001c1.121 1.086 2.65 1.756 4.336 1.758h0c1.686-0.001 3.215-0.671 4.337-1.759l-0.002 0.002c1.106-1.071 1.795-2.567 1.804-4.224v-8.746s-12.278 1.335-12.278 8.743zM6.14 26.855c-0.001 0-0.002 0-0.002 0-0.331 0-0.639-0.098-0.897-0.267l0.006 0.004c-0.262-0.171-0.466-0.41-0.589-0.693l-0.004-0.010c-0.077-0.177-0.122-0.382-0.122-0.598 0-0.109 0.011-0.215 0.033-0.317l-0.002 0.010c0.062-0.304 0.215-0.583 0.439-0.802 0.22-0.213 0.5-0.365 0.814-0.427l0.010-0.002c0.312-0.061 0.635-0.030 0.929 0.089s0.545 0.319 0.722 0.577c0.17 0.244 0.271 0.546 0.271 0.872 0 0.216-0.045 0.422-0.125 0.609l0.004-0.010c-0.080 0.191-0.199 0.365-0.348 0.511s-0.327 0.262-0.522 0.341c-0.182 0.076-0.394 0.12-0.616 0.12-0 0-0.001 0-0.001 0h0v-0.006zM18.672 25.884h-1.256v1.297h-0.655v-3.173h2.067v0.53h-1.412v0.819h1.255v0.528zM21.815 25.666c0 0.313-0.055 0.586-0.166 0.822s-0.269 0.417-0.475 0.545c-0.194 0.121-0.43 0.192-0.682 0.192-0.009 0-0.017-0-0.026-0l0.001 0c-0.263 0-0.498-0.063-0.704-0.19-0.208-0.131-0.373-0.314-0.476-0.533l-0.003-0.008c-0.109-0.23-0.173-0.5-0.173-0.785 0-0.009 0-0.018 0-0.028l-0 0.001v-0.158c0-0.313 0.056-0.588 0.168-0.825 0.113-0.238 0.272-0.42 0.477-0.547 0.207-0.128 0.442-0.192 0.707-0.192s0.499 0.064 0.704 0.192c0.206 0.127 0.365 0.309 0.477 0.547 0.114 0.237 0.17 0.511 0.17 0.822v0.141zM21.153 25.522c0-0.333-0.060-0.586-0.179-0.759-0.106-0.157-0.284-0.26-0.485-0.26-0.009 0-0.018 0-0.027 0.001l0.001-0c-0.007-0-0.016-0.001-0.025-0.001-0.201 0-0.378 0.102-0.482 0.256l-0.001 0.002c-0.119 0.17-0.179 0.42-0.181 0.749v0.155c0 0.324 0.060 0.576 0.179 0.755s0.29 0.268 0.514 0.268c0.008 0 0.017 0.001 0.026 0.001 0.2 0 0.375-0.101 0.479-0.255l0.001-0.002c0.118-0.173 0.177-0.424 0.179-0.755v-0.155zM23.936 26.348c0-0.006 0-0.012 0-0.018 0-0.107-0.051-0.203-0.13-0.264l-0.001-0.001c-0.087-0.067-0.244-0.137-0.471-0.21-0.209-0.065-0.388-0.139-0.558-0.227l0.019 0.009c-0.36-0.195-0.54-0.457-0.54-0.787 0-0.171 0.048-0.324 0.144-0.458 0.098-0.135 0.236-0.24 0.417-0.316s0.385-0.113 0.61-0.113c0.227 0 0.429 0.042 0.607 0.124s0.314 0.197 0.412 0.347c0.099 0.15 0.149 0.32 0.149 0.511h-0.655c0-0.146-0.045-0.258-0.137-0.338-0.092-0.082-0.22-0.123-0.386-0.123-0.159 0-0.284 0.034-0.372 0.103-0.082 0.058-0.134 0.152-0.134 0.259 0 0.003 0 0.005 0 0.008v-0c0 0.103 0.052 0.189 0.156 0.259s0.258 0.135 0.46 0.196c0.372 0.112 0.643 0.251 0.813 0.417s0.255 0.372 0.255 0.618c0 0.275-0.104 0.491-0.312 0.647s-0.487 0.234-0.839 0.234c-0.244 0-0.466-0.045-0.667-0.133-0.189-0.080-0.344-0.207-0.458-0.365l-0.002-0.003c-0.099-0.147-0.157-0.328-0.157-0.522 0-0.006 0-0.013 0-0.019v0.001h0.656c0 0.35 0.209 0.525 0.628 0.525 0.156 0 0.277-0.031 0.364-0.094 0.080-0.057 0.131-0.149 0.131-0.254 0-0.004-0-0.009-0-0.013l0 0.001zM27.427 24.537h-0.973v2.644h-0.654v-2.644h-0.959v-0.53h2.586v0.53zM29.712 25.805h-1.255v0.85h1.474v0.525h-2.128v-3.173h2.124v0.53h-1.469v0.756h1.255v0.513zM31.489 26.019h-0.521v1.162h-0.655v-3.173h1.18c0.375 0 0.664 0.083 0.868 0.251s0.305 0.403 0.305 0.708c0 0.216-0.048 0.397-0.141 0.543-0.105 0.152-0.25 0.271-0.419 0.341l-0.006 0.002 0.687 1.297v0.030h-0.702l-0.595-1.162zM30.968 25.489h0.528c0.164 0 0.291-0.042 0.381-0.124 0.084-0.082 0.136-0.197 0.136-0.323 0-0.008-0-0.017-0.001-0.025l0 0.001c0-0.15-0.042-0.268-0.129-0.353-0.084-0.086-0.214-0.129-0.39-0.129h-0.525v0.953zM34.931 26.062v1.119h-0.654v-3.173h1.238c0.238 0 0.448 0.043 0.628 0.131 0.182 0.087 0.321 0.211 0.418 0.372s0.147 0.342 0.147 0.548c0 0.311-0.107 0.557-0.321 0.737-0.212 0.179-0.506 0.268-0.883 0.268h-0.573zM34.931 25.533h0.584c0.173 0 0.305-0.041 0.394-0.123 0.092-0.081 0.138-0.197 0.138-0.348 0-0.007 0.001-0.015 0.001-0.023 0-0.137-0.053-0.262-0.139-0.355l0 0c-0.092-0.096-0.218-0.145-0.38-0.149h-0.599v0.997zM39.069 25.805h-1.255v0.85h1.474v0.525h-2.128v-3.173h2.124v0.53h-1.47v0.756h1.256v0.513zM42.105 24.537h-0.973v2.644h-0.654v-2.644h-0.959v-0.53h2.586v0.53zM44.389 25.805h-1.256v0.85h1.474v0.525h-2.127v-3.173h2.123v0.53h-1.47v0.756h1.256v0.513zM46.166 26.019h-0.521v1.162h-0.655v-3.173h1.18c0.375 0 0.665 0.083 0.868 0.251s0.305 0.403 0.305 0.708c0 0.216-0.048 0.397-0.141 0.543-0.105 0.152-0.25 0.271-0.419 0.341l-0.006 0.002 0.687 1.297v0.030h-0.703l-0.595-1.162zM45.645 25.489h0.527c0.164 0 0.292-0.042 0.382-0.124 0.084-0.082 0.136-0.197 0.136-0.323 0-0.008-0-0.017-0.001-0.025l0 0.001c0-0.15-0.043-0.268-0.129-0.353-0.084-0.086-0.214-0.129-0.391-0.129h-0.525v0.953zM49.489 26.348c0-0.005 0-0.012 0-0.018 0-0.108-0.051-0.204-0.131-0.264l-0.001-0.001c-0.088-0.067-0.244-0.137-0.471-0.21-0.209-0.065-0.388-0.139-0.558-0.227l0.019 0.009c-0.36-0.195-0.54-0.457-0.54-0.787 0-0.171 0.048-0.324 0.144-0.458s0.236-0.24 0.417-0.316c0.182-0.075 0.385-0.113 0.61-0.113 0.227 0 0.429 0.042 0.606 0.124s0.315 0.197 0.412 0.347c0.099 0.15 0.149 0.32 0.149 0.511h-0.655c0-0.146-0.045-0.258-0.137-0.338-0.092-0.082-0.22-0.123-0.386-0.123-0.16 0-0.284 0.034-0.372 0.103-0.082 0.058-0.134 0.152-0.134 0.259 0 0.003 0 0.005 0 0.008v-0c0 0.103 0.052 0.189 0.156 0.259s0.258 0.135 0.46 0.196c0.372 0.112 0.643 0.251 0.813 0.417s0.255 0.372 0.255 0.618c0 0.275-0.104 0.491-0.312 0.647s-0.487 0.234-0.839 0.234c-0.244 0-0.466-0.045-0.667-0.133-0.188-0.080-0.344-0.207-0.458-0.365l-0.002-0.003c-0.099-0.147-0.157-0.328-0.157-0.522 0-0.006 0-0.013 0-0.019v0.001h0.656c0 0.35 0.208 0.525 0.627 0.525 0.156 0 0.278-0.031 0.365-0.094 0.079-0.057 0.13-0.149 0.13-0.253 0-0.005-0-0.009-0-0.014l0 0.001z"></path>
</symbol>
<symbol id="icon-instagram2" viewBox="0 0 32 32">
<path  d="M31.968 9.408c-0.074-1.701-0.349-2.869-0.742-3.882-0.424-1.111-1.054-2.059-1.85-2.837l-0.001-0.001c-0.78-0.792-1.724-1.419-2.778-1.827l-0.054-0.018c-1.019-0.394-2.181-0.667-3.882-0.742-1.712-0.082-2.256-0.101-6.602-0.101-4.344 0-4.888 0.019-6.595 0.094-1.699 0.074-2.869 0.349-3.88 0.742-1.112 0.424-2.060 1.054-2.839 1.85l-0.001 0.001c-0.791 0.78-1.418 1.724-1.825 2.778l-0.018 0.054c-0.395 1.019-0.669 2.181-0.744 3.882-0.082 1.712-0.101 2.256-0.101 6.602 0 4.344 0.019 4.888 0.094 6.595 0.075 1.701 0.35 2.869 0.744 3.882 0.426 1.11 1.055 2.057 1.849 2.837l0.001 0.001c0.8 0.813 1.77 1.443 2.832 1.843 1.019 0.395 2.182 0.67 3.882 0.744 1.707 0.075 2.251 0.094 6.595 0.094 4.346 0 4.89-0.019 6.595-0.094 1.701-0.074 2.869-0.349 3.882-0.742 2.157-0.85 3.833-2.526 4.664-4.628l0.019-0.055c0.394-1.019 0.669-2.182 0.744-3.882 0.075-1.707 0.093-2.251 0.093-6.595s-0.006-4.888-0.080-6.595zM29.088 22.474c-0.070 1.563-0.333 2.406-0.55 2.97-0.552 1.399-1.64 2.486-3.004 3.024l-0.036 0.012c-0.56 0.219-1.411 0.482-2.968 0.55-1.688 0.075-2.194 0.094-6.464 0.094-4.269 0-4.782-0.019-6.464-0.094-1.563-0.069-2.406-0.331-2.97-0.55-0.721-0.269-1.334-0.676-1.836-1.192l-0.001-0.001c-0.517-0.503-0.924-1.117-1.184-1.803l-0.011-0.034c-0.218-0.563-0.48-1.413-0.549-2.97-0.075-1.688-0.094-2.195-0.094-6.464 0-4.27 0.019-4.784 0.094-6.464 0.069-1.563 0.331-2.406 0.549-2.97 0.269-0.722 0.678-1.337 1.198-1.837l0.002-0.002c0.504-0.517 1.119-0.923 1.806-1.182l0.034-0.011c0.56-0.219 1.411-0.48 2.968-0.55 1.688-0.074 2.195-0.093 6.464-0.093 4.275 0 4.782 0.019 6.464 0.093 1.563 0.069 2.406 0.331 2.97 0.55 0.693 0.256 1.325 0.662 1.837 1.194 0.531 0.52 0.938 1.144 1.195 1.84 0.218 0.56 0.48 1.411 0.549 2.968 0.075 1.688 0.094 2.194 0.094 6.464 0 4.269-0.019 4.768-0.094 6.458z"></path>
<path  d="M16.059 7.782c-4.539 0.002-8.218 3.682-8.219 8.221v0c0 0 0 0.001 0 0.002 0 4.541 3.681 8.222 8.222 8.222s8.222-3.681 8.222-8.222c0-4.541-3.681-8.222-8.222-8.222-0.001 0-0.001 0-0.002 0h0zM16.059 21.334c-2.945-0-5.332-2.388-5.332-5.333s2.388-5.333 5.333-5.333c0 0 0.001 0 0.001 0h-0c2.946 0 5.334 2.388 5.334 5.334s-2.388 5.334-5.334 5.334v0zM26.525 7.458c0 1.060-0.86 1.92-1.92 1.92s-1.92-0.86-1.92-1.92v0c0-1.060 0.86-1.92 1.92-1.92s1.92 0.86 1.92 1.92v0z"></path>
</symbol>
<symbol id="icon-linkedin1" viewBox="0 0 32 32">
<path  d="M31.992 32h0.008v-11.738c0-5.741-1.235-10.163-7.947-10.163-3.227 0-5.392 1.77-6.277 3.45h-0.093v-2.914h-6.365v21.363h6.627v-10.578c0-2.786 0.528-5.48 3.978-5.48 3.398 0 3.45 3.179 3.45 5.658v10.402h6.619zM0.528 10.635h6.635v21.365h-6.635v-21.365zM3.843 0c-2.123 0-3.843 1.721-3.843 3.843v0c0 2.12 1.722 3.878 3.843 3.878 2.12 0 3.842-1.757 3.842-3.878s-1.72-3.841-3.841-3.843h-0z"></path>
</symbol>
<symbol id="icon-smartphone" viewBox="0 0 21 32">
<path  d="M18.133 0h-14.933c-1.764 0-3.2 1.34-3.2 2.987v25.89c0 1.647 1.436 2.987 3.2 2.987h14.933c1.764 0 3.2-1.34 3.2-2.987v-25.89c0-1.647-1.436-2.987-3.2-2.987zM3.2 1.99h14.933c0.589 0 1.067 0.448 1.067 0.996v20.911h-17.067v-20.911c0-0.548 0.478-0.996 1.067-0.996zM18.133 29.873h-14.933c-0.589 0-1.067-0.448-1.067-0.996v-2.987h17.067v2.987c0 0.548-0.478 0.994-1.067 0.994z"></path>
<path  d="M5.022 27.177c0.192 0.174 0.312 0.425 0.312 0.704s-0.12 0.53-0.312 0.703l-0.001 0.001c-0.198 0.182-0.464 0.293-0.755 0.293s-0.557-0.111-0.756-0.294l0.001 0.001c-0.192-0.174-0.312-0.425-0.312-0.704s0.12-0.53 0.312-0.703l0.001-0.001c0.198-0.182 0.464-0.293 0.755-0.293s0.557 0.111 0.756 0.294l-0.001-0.001z"></path>
</symbol>
<symbol id="icon-twitter1" viewBox="0 0 32 32">
<path  d="M32 6.078c-1.1 0.493-2.376 0.857-3.713 1.028l-0.068 0.007c1.36-0.817 2.382-2.078 2.873-3.579l0.013-0.046c-1.197 0.722-2.591 1.273-4.076 1.573l-0.084 0.014c-1.2-1.279-2.9-2.076-4.787-2.076-3.622 0-6.558 2.936-6.558 6.558 0 0.001 0 0.003 0 0.004v-0c0 0.52 0.043 1.021 0.152 1.496-5.454-0.266-10.28-2.88-13.522-6.861-0.564 0.949-0.899 2.092-0.902 3.313v0.001c0 2.272 1.171 4.286 2.914 5.451-1.091-0.030-2.107-0.325-2.994-0.823l0.033 0.017v0.072c0.003 3.165 2.236 5.807 5.213 6.44l0.043 0.008c-0.499 0.136-1.071 0.215-1.662 0.215-0.020 0-0.041-0-0.061-0l0.003 0c-0.419 0-0.843-0.024-1.242-0.112 0.85 2.598 3.261 4.509 6.13 4.57-2.215 1.746-5.045 2.8-8.122 2.8-0.004 0-0.008 0-0.013 0h0.001c-0.018 0-0.040 0-0.062 0-0.531 0-1.055-0.034-1.569-0.099l0.061 0.006c2.826 1.846 6.287 2.944 10.004 2.944 0.021 0 0.042-0 0.063-0h-0.003c12.072 0 18.672-10 18.672-18.669 0-0.288-0.010-0.57-0.024-0.848 1.299-0.936 2.39-2.064 3.258-3.355l0.030-0.047z"></path>
</symbol>
<symbol id="icon-Vector" viewBox="0 0 41 32">
<path d="M2.073 31.932h33.167c0 0 0 0 0.001 0 1.145 0 2.073-0.928 2.073-2.073v0-2.764c0-1.145-0.928-2.073-2.073-2.073v0h-0.691v-17.233l3.925-3.718c0.269 0.135 0.586 0.215 0.921 0.215 1.151 0 2.085-0.933 2.085-2.085s-0.933-2.085-2.085-2.085c-1.151 0-2.085 0.933-2.085 2.085 0 0.32 0.072 0.623 0.201 0.894l-0.005-0.013-2.957 2.803v-1.594c0-1.145-0.928-2.073-2.073-2.073v0h-27.64c-1.145 0-2.073 0.928-2.073 2.073v20.73h-0.691c-1.145 0-2.073 0.928-2.073 2.073v0 2.764c0 1.145 0.928 2.073 2.073 2.073v0zM39.387 1.529c0.382 0 0.691 0.309 0.691 0.691s-0.309 0.691-0.691 0.691v0c-0.382 0-0.691-0.309-0.691-0.691s0.309-0.691 0.691-0.691v0zM4.146 4.293c0-0.382 0.309-0.691 0.691-0.691h27.64c0.382 0 0.691 0.309 0.691 0.691v2.902l-1.382 1.313v-2.833c0-0.382-0.31-0.692-0.692-0.692h-24.875c-0.382 0-0.692 0.309-0.692 0.691v17.275c0 0.382 0.31 0.691 0.692 0.691h24.875c0.382 0 0.692-0.309 0.692-0.691v-12.541l1.382-1.31v15.923h-29.022v-20.728zM10.365 13.276c-0.002 0-0.004 0-0.006 0-1.145 0-2.073 0.928-2.073 2.073s0.928 2.073 2.073 2.073c0.56 0 1.069-0.222 1.442-0.584l-0.001 0.001 2.402 1.205c0.279 0.139 0.617 0.074 0.825-0.159l5.106-5.744 5.019 3.761c0.27 0.201 0.645 0.18 0.889-0.051l4.362-4.132v10.54h-23.493v-15.893h23.493v3.449l-4.889 4.63-5.061-3.794c-0.114-0.086-0.259-0.139-0.415-0.139-0.205 0-0.389 0.089-0.516 0.231l-0.001 0.001-5.176 5.824-1.935-0.968c0.014-0.083 0.023-0.167 0.026-0.251 0-1.145-0.928-2.073-2.073-2.073v0zM11.056 15.349c0 0.382-0.309 0.691-0.691 0.691s-0.691-0.309-0.691-0.691v0c0-0.382 0.309-0.691 0.691-0.691s0.691 0.309 0.691 0.691v0zM15.202 26.405h6.91v0.691c0 0.382-0.309 0.691-0.69 0.691h-5.528c-0.382 0-0.691-0.309-0.691-0.691v0-0.691zM1.383 27.096c0-0.382 0.309-0.691 0.69-0.691h11.747v0.691c0 1.145 0.928 2.073 2.073 2.073v0h5.528c1.145 0 2.073-0.928 2.073-2.073v0-0.691h11.747c0.382 0 0.691 0.309 0.691 0.691v2.764c0 0.382-0.309 0.691-0.691 0.691h-33.167c-0 0-0 0-0.001 0-0.382 0-0.691-0.309-0.691-0.691 0 0 0 0 0 0v0-2.764z"></path>
</symbol>
<symbol id="icon-yaandco" viewBox="0 0 29 32">
<path fill="#afb1b8" style="fill: var(--color3, #afb1b8)" d="M3.84 0l4.677 4.428h13.046v12.351l4.677 4.428v-21.206h-22.4z"></path>
<path fill="#afb1b8" style="fill: var(--color3, #afb1b8)" d="M0 4.241v20.6h21.76v-8.188l-13.105-12.407-8.655-0.005zM17.615 21.828h-14.172v-13.855h1.002v12.917h13.17v0.938zM6.266 28.662l0.524-1.078h0.438l-0.764 1.437v0.838h-0.397v-0.838l-0.764-1.437h0.439l0.524 1.078zM8.513 29.329h-0.881l-0.184 0.53h-0.411l0.859-2.275h0.355l0.861 2.275h-0.413l-0.186-0.53zM7.743 29.010h0.659l-0.33-0.944-0.33 0.944zM10.071 29.244c0-0.105 0.029-0.202 0.086-0.289 0.058-0.089 0.17-0.193 0.339-0.314-0.069-0.083-0.131-0.176-0.182-0.276l-0.004-0.008c-0.031-0.066-0.050-0.144-0.052-0.226v-0c0-0.179 0.054-0.319 0.163-0.422s0.254-0.156 0.437-0.156c0.166 0 0.301 0.049 0.406 0.147 0.106 0.097 0.16 0.218 0.16 0.361 0 0.001 0 0.002 0 0.003 0 0.096-0.027 0.186-0.074 0.262l0.001-0.002c-0.063 0.095-0.142 0.174-0.233 0.236l-0.003 0.002-0.155 0.113 0.44 0.518c0.063-0.125 0.095-0.264 0.095-0.417h0.33c0 0.28-0.065 0.509-0.196 0.689l0.334 0.396h-0.44l-0.128-0.152c-0.154 0.115-0.348 0.183-0.558 0.183-0.008 0-0.017-0-0.025-0l0.001 0c-0.225 0-0.405-0.060-0.54-0.179-0.124-0.11-0.202-0.27-0.202-0.447 0-0.007 0-0.014 0-0.021l-0 0.001zM10.824 29.587c0.128 0 0.248-0.043 0.359-0.128l-0.497-0.586-0.049 0.035c-0.125 0.095-0.188 0.203-0.188 0.325 0 0.105 0.034 0.191 0.102 0.256 0.066 0.061 0.156 0.099 0.254 0.099 0.006 0 0.013-0 0.019-0l-0.001 0zM10.614 28.121c0 0.088 0.054 0.197 0.161 0.33l0.173-0.118 0.049-0.039c0.059-0.052 0.097-0.128 0.097-0.212 0-0.003-0-0.006-0-0.009v0c0-0.001 0-0.001 0-0.002 0-0.059-0.026-0.112-0.067-0.149l-0-0c-0.042-0.040-0.099-0.064-0.162-0.064-0.003 0-0.006 0-0.009 0h0c-0.003-0-0.006-0-0.010-0-0.066 0-0.126 0.029-0.167 0.075l-0 0c-0.041 0.048-0.066 0.111-0.066 0.179 0 0.003 0 0.007 0 0.010v-0zM14.748 29.118c-0.023 0.243-0.113 0.432-0.269 0.568s-0.364 0.204-0.623 0.204c-0.181 0-0.341-0.043-0.48-0.128-0.139-0.089-0.248-0.214-0.317-0.362l-0.002-0.005c-0.074-0.16-0.117-0.347-0.117-0.544 0-0.003 0-0.005 0-0.008v0-0.212c0-0.214 0.038-0.403 0.114-0.567 0.077-0.164 0.186-0.29 0.326-0.378 0.143-0.089 0.307-0.133 0.494-0.133 0.251 0 0.453 0.068 0.606 0.205s0.243 0.329 0.268 0.578h-0.394c-0.019-0.163-0.067-0.281-0.144-0.353-0.076-0.073-0.188-0.109-0.336-0.109-0.172 0-0.304 0.063-0.397 0.189-0.092 0.125-0.138 0.309-0.141 0.552v0.202c0 0.246 0.044 0.433 0.132 0.563s0.218 0.194 0.387 0.194c0.155 0 0.272-0.035 0.35-0.105s0.128-0.186 0.148-0.348h0.394zM16.918 28.78c0 0.223-0.038 0.419-0.115 0.588-0.077 0.168-0.188 0.297-0.332 0.388-0.143 0.090-0.307 0.134-0.494 0.134-0.184 0-0.349-0.045-0.493-0.134-0.146-0.094-0.261-0.225-0.332-0.38l-0.002-0.006c-0.075-0.163-0.119-0.354-0.119-0.555 0-0.008 0-0.015 0-0.023v0.001-0.128c0-0.222 0.038-0.418 0.117-0.588s0.19-0.3 0.333-0.389c0.144-0.091 0.308-0.136 0.493-0.136s0.35 0.045 0.493 0.134c0.143 0.089 0.255 0.217 0.333 0.384s0.118 0.362 0.118 0.584v0.126zM16.522 28.662c0-0.252-0.048-0.445-0.143-0.58-0.085-0.123-0.225-0.202-0.384-0.202-0.007 0-0.015 0-0.022 0.001l0.001-0c-0.005-0-0.011-0-0.016-0-0.159 0-0.299 0.079-0.384 0.2l-0.001 0.002c-0.096 0.133-0.145 0.323-0.147 0.567v0.131c0 0.25 0.049 0.444 0.146 0.58s0.233 0.205 0.406 0.205c0.175 0 0.31-0.067 0.403-0.2 0.095-0.133 0.142-0.328 0.142-0.584v-0.118z"></path>
</symbol>
<symbol id="icon-plane-1" viewBox="0 0 32 32">
<path fill="#fff" style="fill: var(--color1, #fff)" d="M32 0l-32 18 10.227 3.787 15.773-14.787-11.997 16.187 0.009 0.003-0.012-0.003v8.813l5.735-6.691 7.267 2.691 4.999-28z"></path>
</symbol>
<symbol id="icon-Vector-1" viewBox="0 0 32 32">
<path d="M32 3.223l-3.223-3.223-12.777 12.777-12.777-12.777-3.223 3.223 12.777 12.777-12.777 12.777 3.223 3.223 12.777-12.777 12.777 12.777 3.223-3.223-12.777-12.777 12.777-12.777z"></path>
</symbol>
<symbol id="icon-email-black" viewBox="0 0 32 32">
<path d="M26.667 5.333h-21.333c-1.467 0-2.653 1.2-2.653 2.667l-0.013 16c0 1.467 1.2 2.667 2.667 2.667h21.333c1.467 0 2.667-1.2 2.667-2.667v-16c0-1.467-1.2-2.667-2.667-2.667zM26.133 11l-9.427 5.893c-0.427 0.267-0.987 0.267-1.413 0l-9.427-5.893c-0.333-0.213-0.533-0.573-0.533-0.96 0-0.893 0.973-1.427 1.733-0.96l8.933 5.587 8.933-5.587c0.76-0.467 1.733 0.067 1.733 0.96 0 0.387-0.2 0.747-0.533 0.96z"></path>
</symbol>
<symbol id="icon-phone-black" viewBox="0 0 32 32">
<path d="M24.881 19.773l-3.268-0.373c-0.785-0.090-1.557 0.18-2.11 0.733l-2.367 2.367c-3.641-1.853-6.626-4.825-8.478-8.478l2.38-2.38c0.553-0.553 0.823-1.325 0.733-2.11l-0.373-3.242c-0.154-1.299-1.248-2.277-2.56-2.277h-2.226c-1.454 0-2.663 1.209-2.573 2.663 0.682 10.987 9.469 19.761 20.443 20.443 1.454 0.090 2.663-1.119 2.663-2.573v-2.226c0.013-1.3-0.965-2.393-2.264-2.547z"></path>
</symbol>

<symbol id="icon-person-black" viewBox="0 0 32 32">
<path d="M16 16c2.947 0 5.333-2.387 5.333-5.333s-2.387-5.333-5.333-5.333c-2.947 0-5.333 2.387-5.333 5.333s2.387 5.333 5.333 5.333zM16 18.667c-3.56 0-10.667 1.787-10.667 5.333v1.333c0 0.733 0.6 1.333 1.333 1.333h18.667c0.733 0 1.333-0.6 1.333-1.333v-1.333c0-3.547-7.107-5.333-10.667-5.333z"></path>
</symbol>
<symbol id="icon-Vector-2" viewBox="0 0 32 32">
<path d="M16 16c4.42 0 8-3.58 8-8s-3.58-8-8-8c-4.42 0-8 3.58-8 8s3.58 8 8 8zM16 20c-5.34 0-16 2.68-16 8v2c0 1.1 0.9 2 2 2h28c1.1 0 2-0.9 2-2v-2c0-5.32-10.66-8-16-8z"></path>
</symbol>
</defs>
</svg>
